<svg id="Layer_1" data-name="Layer 1" xmlns="http://www.w3.org/2000/svg" viewBox="0 0 60 60"><defs><style>.cls-1{fill:#fff;}</style></defs><title>icon</title><path class="cls-1" d="M48,56a2.14,2.14,0,0,0,1.14-1c.49-1-.54-2-.7-3.51a19.47,19.47,0,0,1,0-4.2c.36,0,5.61-.46,8.19-5.15A10.48,10.48,0,0,0,57,33.4a9.62,9.62,0,0,0,2.51-9.78,9.8,9.8,0,0,0-5.38-5.69A13.84,13.84,0,0,0,50,10.35C46,6.83,40.07,6,34.56,8.15a10.49,10.49,0,0,0-8.42-3.09,10.48,10.48,0,0,0-7.58,4.87,7,7,0,0,0-6.43.6A7,7,0,0,0,9.29,16.4a9.85,9.85,0,0,0-7.81,4.11A9.47,9.47,0,0,0,1.69,31,11.26,11.26,0,0,0,3.27,42.5c3.48,4,10.06,4.82,15.19,1.35a11.42,11.42,0,0,0,14.68,1.82c2,1.94,3.8,3.52,5.14,4.68C44.64,55.84,46.67,56.53,48,56Z"/></svg>