<svg id="Layer_1" data-name="Layer 1" xmlns="http://www.w3.org/2000/svg" viewBox="0 0 60 60"><defs><style>.cls-1{fill:#fff;}</style></defs><title>icon</title><path class="cls-1" d="M35.92,11.29l-11.63,0L13.61,21a3,3,0,0,0-1,2.19l-.09,13.5,34.88.16.08-13.5a3,3,0,0,0-1-2.2Z"/><path class="cls-1" d="M10.85,33.57l38.22.18a1.69,1.69,0,0,1,1.81,1.56l0,3.1A1.69,1.69,0,0,1,49,40l-38.23-.18A1.69,1.69,0,0,1,9,38.22l0-3.11A1.7,1.7,0,0,1,10.85,33.57Z"/><path class="cls-1" d="M26.38,3.89l7.54,0c.71,0,1.29.31,1.33.71l.67,6.66-11.63,0L25,4.58C25.09,4.19,25.67,3.89,26.38,3.89Z"/><path class="cls-1" d="M18.64,39.74h6.76a0,0,0,0,1,0,0v14.4a2,2,0,0,1-2,2H20.6a2,2,0,0,1-2-2V39.74A0,0,0,0,1,18.64,39.74Z"/><path class="cls-1" d="M34.58,39.74h6.76a0,0,0,0,1,0,0v14.4a2,2,0,0,1-2,2H36.54a2,2,0,0,1-2-2V39.74A0,0,0,0,1,34.58,39.74Z"/></svg>