<svg xmlns="http://www.w3.org/2000/svg" viewBox="0 0 83.98 104.71"><defs><style>.cls-1{fill:#010101;}</style></defs><title>icon-5</title><g id="Layer_2" data-name="Layer 2"><g id="Layer_1-2" data-name="Layer 1"><path class="cls-1" d="M54,14.84l-23.34-.1L9.25,34.28a6.06,6.06,0,0,0-2,4.4L7,65.76,77,66.08,77.13,39a6,6,0,0,0-2-4.42Z"/><path class="cls-1" d="M3.7,59.52l76.66.36A3.4,3.4,0,0,1,84,63l0,6.23a3.41,3.41,0,0,1-3.66,3.08L3.62,72A3.39,3.39,0,0,1,0,68.84l0-6.23A3.41,3.41,0,0,1,3.7,59.52Z"/><path class="cls-1" d="M34.85,0,50,.07c1.41,0,2.58.62,2.66,1.41L54,14.84l-23.34-.1L32.17,1.38C32.26.6,33.43,0,34.85,0Z"/><path class="cls-1" d="M19.32,71.89H32.87a0,0,0,0,1,0,0v26a6.77,6.77,0,0,1-6.77,6.77h0a6.77,6.77,0,0,1-6.77-6.77v-26a0,0,0,0,1,0,0Z"/><path class="cls-1" d="M51.29,71.89H64.83a0,0,0,0,1,0,0v26a6.77,6.77,0,0,1-6.77,6.77h0a6.77,6.77,0,0,1-6.77-6.77v-26A0,0,0,0,1,51.29,71.89Z"/></g></g></svg>