<svg xmlns="http://www.w3.org/2000/svg" viewBox="0 0 120 102.29"><defs><style>.cls-1{fill:#010101;}</style></defs><title>icon-3</title><g id="Layer_2" data-name="Layer 2"><g id="Layer_1-2" data-name="Layer 1"><path class="cls-1" d="M96,102a4.25,4.25,0,0,0,2.27-1.91c1-2-1.07-4-1.39-7a40.28,40.28,0,0,1,0-8.4c.72,0,11.21-.92,16.37-10.3,4.57-8.31,1.23-16.53.8-17.54a19.27,19.27,0,0,0,5-19.57c-2.57-7.81-9.63-10.9-10.76-11.38A27.56,27.56,0,0,0,100,10.7C92.07,3.66,80.14,2,69.12,6.29,68.41,5.54,62-.94,52.29.12S37.63,9,37.11,9.86c-.37-.16-6.89-2.9-12.85,1.2s-5.71,11.37-5.69,11.73C17.8,22.8,8.25,23,3,31a18.93,18.93,0,0,0,.42,21C.17,60,1.33,69,6.55,75c6.94,8,20.12,9.64,30.37,2.7a22.8,22.8,0,0,0,29.36,3.64c4,3.89,7.59,7,10.28,9.37C89.27,101.69,93.34,103.06,96,102Z"/></g></g></svg>