<svg id="Layer_1" data-name="Layer 1" xmlns="http://www.w3.org/2000/svg" viewBox="0 0 60 60"><defs><style>.cls-1{fill:#fff;}</style></defs><title>icon</title><path class="cls-1" d="M52,47.79v6.4a2,2,0,0,1-2,1.92H9.88a2,2,0,0,1-2-1.92v-6.4c0-1.42.85-2.58,1.9-2.58H50.09C51.14,45.21,52,46.37,52,47.79Z"/><path class="cls-1" d="M2.94,33.76c-2.06,0-3.53-2.34-2.86-4.59C4.74,13.44,17.88,3,31.92,4c12.71.88,23.83,11,28,25.19.66,2.27-.78,4.62-2.85,4.62Z"/><rect class="cls-1" x="22.28" y="33.76" width="15.27" height="11.78"/></svg>