<svg xmlns="http://www.w3.org/2000/svg" viewBox="0 0 120.45 104.84"><defs><style>.cls-1{fill:#010101;}</style></defs><title>icon-1</title><g id="Layer_2" data-name="Layer 2"><g id="Layer_1-2" data-name="Layer 1"><path class="cls-1" d="M117.94,45,66.29,2.19a9.49,9.49,0,0,0-12.13,0L2.51,45A6.92,6.92,0,0,0,6.93,57.23H16V98.94a5.9,5.9,0,0,0,5.9,5.9H49.57V78.38a11.11,11.11,0,0,1,9.07-10,11.49,11.49,0,0,1,8.89,2.94,11.21,11.21,0,0,1,3.35,7.08v26.46H98.56a5.9,5.9,0,0,0,5.9-5.9V57.23h9.06A6.92,6.92,0,0,0,117.94,45Z"/></g></g></svg>