<svg xmlns="http://www.w3.org/2000/svg" viewBox="0 0 748.85 661.01"><defs><style>.cls-1,.cls-11,.cls-2{fill:#36beb9;}.cls-1,.cls-6{opacity:0.1;}.cls-10,.cls-2{opacity:0.2;}.cls-10,.cls-3,.cls-6{fill:#fff;}.cls-4{fill:#d8e9e9;}.cls-5{fill:#4b5765;}.cls-10,.cls-6{stroke:#fff;stroke-linecap:round;stroke-linejoin:round;stroke-width:2.79px;}.cls-7{fill:#ec695c;}.cls-8{fill:#45c0b8;}.cls-9{fill:#f9d84a;}.cls-11{opacity:0.3;}.cls-12{fill:#78334a;}.cls-13{fill:#3d4751;}.cls-14{fill:#f69799;}</style></defs><title>conclusion</title><g id="Layer_2" data-name="Layer 2"><g id="Layer_1-2" data-name="Layer 1"><path class="cls-1" d="M0,266.82V661H745.75c1-.84,2.07-1.69,3.1-2.54v-633c-130.48-58-303.28-10.37-376.1,76.66-16.55,19.79-25.13,33.19-29.32,40.66a59.08,59.08,0,0,0-3.56,7.15c-3,4.68-5.83,9.07-8.42,13.18-11.48,18.23-19,31.27-26.57,42.25a146.91,146.91,0,0,1-24.26,27.76c-10.52,9.43-22.41,20.08-39.9,26.75-22.87,8.72-42.63,5.79-62.9.45-13.69-3.61-27.62-8.32-42.88-11.3C90,240.26,41.6,248.18,0,266.82Z"/><rect class="cls-2" y="601.48" width="748.85" height="58.17"/><path class="cls-3" d="M531.28,390.69a30.1,30.1,0,1,1-38.58-18,30.1,30.1,0,0,1,38.58,18"/><path class="cls-3" d="M531.72,418.53l-11.9,41.52c-5.9,20.55-35.66,18.46-38.64-2.7l-6.47-46.07Z"/><path class="cls-3" d="M549.85,383.93a30.11,30.11,0,1,0,18-38.58,30.11,30.11,0,0,0-18,38.58"/><path class="cls-3" d="M567.41,405.54l35.81,24.15c17.72,12,39.19-8.77,27.86-26.9l-24.65-39.45Z"/><rect class="cls-3" x="501.88" y="368.36" width="79.97" height="45.03" transform="translate(-101.01 208.9) rotate(-20)"/><path class="cls-4" d="M495.29,379.83a22.51,22.51,0,1,1-13.45,28.86,22.55,22.55,0,0,1,13.45-28.86"/><path class="cls-5" d="M510.5,412.21l-6,2.2a1.62,1.62,0,0,1-2.06-1l-7.87-21.63a1.61,1.61,0,0,1,1-2.06l6-2.2a1.62,1.62,0,0,1,2.06,1l7.87,21.63a1.61,1.61,0,0,1-1,2.06"/><path class="cls-5" d="M515.46,401.58l-21.63,7.87a1.61,1.61,0,0,1-2.06-1l-2.2-6a1.62,1.62,0,0,1,1-2.06l21.63-7.87a1.61,1.61,0,0,1,2.06,1l2.2,6a1.61,1.61,0,0,1-1,2.06"/><polygon class="cls-6" points="504.29 412.1 505.41 411.69 497.96 391.24 496.84 391.64 498.92 397.34 499.68 399.44 497.58 400.2 491.88 402.28 493.65 407.14 499.35 405.07 501.45 404.3 502.21 406.4 504.29 412.1"/><path class="cls-4" d="M570.44,352.48A22.51,22.51,0,1,1,557,381.34a22.54,22.54,0,0,1,13.46-28.86"/><path class="cls-5" d="M571.86,375.92a5.57,5.57,0,1,1-7.13-3.33,5.58,5.58,0,0,1,7.13,3.33"/><path class="cls-7" d="M594.88,367.54a5.57,5.57,0,1,1-7.13-3.33,5.58,5.58,0,0,1,7.13,3.33"/><path class="cls-8" d="M587.56,383.24a5.57,5.57,0,1,1-7.13-3.33,5.58,5.58,0,0,1,7.13,3.33"/><path class="cls-9" d="M579.18,360.22a5.57,5.57,0,1,1-7.13-3.33,5.58,5.58,0,0,1,7.13,3.33"/><path class="cls-10" d="M565.49,374.69a3.34,3.34,0,0,0,2.28,6.27Z"/><path class="cls-10" d="M572.81,359h0a3.34,3.34,0,0,0,2.28,6.27h0Z"/><path class="cls-10" d="M581.19,382a3.34,3.34,0,0,0,2.28,6.27Z"/><path class="cls-10" d="M588.51,366.31a3.34,3.34,0,0,0,2.28,6.27Z"/><rect class="cls-5" x="530.08" y="387.65" width="7.47" height="5.96" rx="1.53" ry="1.53" transform="translate(-101.41 206.14) rotate(-20)"/><rect class="cls-5" x="544.11" y="382.54" width="7.47" height="5.96" rx="1.53" ry="1.53" transform="translate(-98.81 210.58) rotate(-20)"/><path class="cls-8" d="M258.77,478.4v-4.47H131.1a13.22,13.22,0,0,0-13.18,13.19v7.73A13.23,13.23,0,0,0,131.1,508H258.77v-4.47H233V478.4Z"/><path class="cls-3" d="M135.43,478.4c-6.79,0-12.34,4.38-12.34,9.73v5.71c0,5.35,5.55,9.73,12.34,9.73H255V478.4Z"/><rect class="cls-4" x="132.46" y="496.88" width="115.03" height="2.48"/><rect class="cls-4" x="132.46" y="489.83" width="115.03" height="2.48"/><rect class="cls-4" x="132.46" y="482.77" width="115.03" height="2.48"/><path class="cls-7" d="M147,478.33h24.19v26.49a1.55,1.55,0,0,1-2.44,1.26l-9.66-6.86-9.65,6.86a1.55,1.55,0,0,1-2.44-1.26Z"/><path class="cls-8" d="M626.81,415.74l-50.1-17.65a12.68,12.68,0,0,0-16.16,7.75L550.1,435.53a12.67,12.67,0,0,0,7.74,16.16l10.67,3.76,7.65,14.22a3.85,3.85,0,0,0,5.13,1.62l13.27-6.67,13.38,4.71a12.67,12.67,0,0,0,16.16-7.74l10.46-29.69A12.68,12.68,0,0,0,626.81,415.74Z"/><rect class="cls-3" x="572.76" y="431.72" width="16.04" height="7.17" rx="1.32" ry="1.32" transform="translate(-19.12 843.87) rotate(-71.11)"/><path class="cls-3" d="M605.23,441.57a2.29,2.29,0,0,0-1.42-2.91l.23.08a2.35,2.35,0,1,0,1.52-4.45l-8.23-2.82a11.29,11.29,0,0,0,4.68-5.55c1.43-4.18-.53-5.59-1.66-6-2.37-.81-2,2.08-3.25,3.73-.67.86-2.63,1.75-5.65,3.53-2.2,1.3-3.52,2.58-4.05,4.15l-4.13,12.07a1.14,1.14,0,0,0,.72,1.46l7.83,2.68,7.07,2.43a1.75,1.75,0,0,0,2.22-1.09h0a1.75,1.75,0,0,0-1.09-2.22l.58.2a2.12,2.12,0,1,0,1.37-4l.36.12A2.28,2.28,0,0,0,605.23,441.57Z"/><path class="cls-7" d="M551.28,404.08,503.54,427a12.64,12.64,0,0,0-5.92,16.86l13.59,28.29a12.64,12.64,0,0,0,16.86,5.92l10.17-4.89,15.42,4.63a3.84,3.84,0,0,0,4.76-2.48l4.63-14.06,12.75-6.13a12.63,12.63,0,0,0,5.92-16.85L568.13,410A12.61,12.61,0,0,0,551.28,404.08Z"/><path class="cls-3" d="M536.24,433.93c-7.79-5.93-17.13,2.21-13.3,10.2,4.46,9.28,19.27,12.21,23.17,10.34s10.86-15.27,6.4-24.55C548.68,421.94,536.49,424.14,536.24,433.93Z"/><path class="cls-11" d="M287.45,625.78c0-4.89,42.19-8.85,88.71-8.85s79.76,4,79.76,8.85-33.24,8.83-79.76,8.83S287.45,630.65,287.45,625.78Z"/><path class="cls-5" d="M371.68,117.3A123.41,123.41,0,1,0,495.1,240.71,123.41,123.41,0,0,0,371.68,117.3Zm0,226.22A102.81,102.81,0,1,1,474.49,240.71,102.8,102.8,0,0,1,371.68,343.52Z"/><path class="cls-12" d="M377.23,154.05a4.79,4.79,0,0,1-4.8,4.77h-1.5a4.78,4.78,0,0,1-4.78-4.77v-19a4.77,4.77,0,0,1,4.78-4.77h1.5a4.79,4.79,0,0,1,4.8,4.77Z"/><path class="cls-3" d="M474.49,240.71A102.81,102.81,0,1,1,371.68,137.9,102.8,102.8,0,0,1,474.49,240.71Z"/><path class="cls-8" d="M285,235.18a4.77,4.77,0,0,1,4.77,4.78v1.51a4.78,4.78,0,0,1-4.77,4.78H266.06a4.78,4.78,0,0,1-4.77-4.78V240a4.77,4.77,0,0,1,4.77-4.78Z"/><path class="cls-8" d="M458.36,246.25a4.78,4.78,0,0,1-4.78-4.78V240a4.77,4.77,0,0,1,4.78-4.78h18.95a4.77,4.77,0,0,1,4.77,4.78v1.51a4.78,4.78,0,0,1-4.77,4.78Z"/><path class="cls-8" d="M377.23,154.05a4.79,4.79,0,0,1-4.8,4.77h-1.5a4.78,4.78,0,0,1-4.78-4.77v-19a4.77,4.77,0,0,1,4.78-4.77h1.5a4.79,4.79,0,0,1,4.8,4.77Z"/><path class="cls-8" d="M366.15,327.39a4.79,4.79,0,0,1,4.78-4.78h1.5a4.8,4.8,0,0,1,4.8,4.78v18.94a4.8,4.8,0,0,1-4.8,4.78h-1.5a4.78,4.78,0,0,1-4.78-4.78Z"/><path class="cls-7" d="M384.12,249.8a4.77,4.77,0,0,1,0,6.76l-1.07,1.07a4.79,4.79,0,0,1-6.76,0l-62-62a4.77,4.77,0,0,1,0-6.75l1.06-1.08a4.81,4.81,0,0,1,6.76,0Z"/><path class="cls-7" d="M367.6,257.63a4.77,4.77,0,0,1-6.74,0l-1.07-1.07a4.77,4.77,0,0,1,0-6.76L405.56,204a4.79,4.79,0,0,1,6.76,0l1.06,1.07a4.77,4.77,0,0,1,0,6.76Z"/><rect class="cls-13" x="179.16" y="531.18" width="30.81" height="34.26"/><rect class="cls-13" x="538.88" y="491.21" width="30.81" height="34.26"/><path class="cls-5" d="M574.23,533.56a9.18,9.18,0,0,0,8.1-10.15l-.33-2.88a9.18,9.18,0,0,0-10.15-8.11L176.14,556.71a9.16,9.16,0,0,0-8.1,10.14l.33,2.89a9.16,9.16,0,0,0,10.14,8.1Z"/><path class="cls-3" d="M640.9,463.86a4.1,4.1,0,0,1,2.55,7.3c-22.85,18.23-59.65,29.27-89.17,29.27s-66.32-11-89.16-29.27a4.1,4.1,0,0,1,2.55-7.3Z"/><path class="cls-5" d="M333.59,617,341,521.79c0-15.61,12.65-32,28.23-32h8.94c15.61,0,28.26,16.38,28.23,32L413.89,617Z"/><path class="cls-8" d="M358.6,545.13A15.15,15.15,0,1,0,373.75,530,15.14,15.14,0,0,0,358.6,545.13Z"/><path class="cls-8" d="M419.42,625.19a5.49,5.49,0,0,0,5.49-5.49V618a5.49,5.49,0,0,0-5.49-5.5H331a5.5,5.5,0,0,0-5.5,5.5v1.74a5.49,5.49,0,0,0,5.5,5.49Z"/><path class="cls-3" d="M280.18,507.88a4.1,4.1,0,0,1,2.56,7.3c-22.85,18.23-59.65,29.27-89.17,29.27s-66.32-11-89.17-29.27a4.1,4.1,0,0,1,2.55-7.3Z"/><rect class="cls-5" x="149.33" y="441.75" width="78.03" height="12.85"/><path class="cls-5" d="M141.58,449.3a3.14,3.14,0,0,1-3.11,3.18h0a3.15,3.15,0,0,1-3.12-3.18v-2.44a3.16,3.16,0,0,1,3.12-3.18h0a3.15,3.15,0,0,1,3.11,3.18Z"/><path class="cls-7" d="M163.37,466.83a7.36,7.36,0,0,1-7.11,7.6h0a7.37,7.37,0,0,1-7.11-7.6v-37a7.37,7.37,0,0,1,7.11-7.6h0a7.36,7.36,0,0,1,7.11,7.6Z"/><path class="cls-14" d="M149.2,462A5.44,5.44,0,0,1,144,467.6h0A5.44,5.44,0,0,1,138.7,462v-27.3a5.44,5.44,0,0,1,5.25-5.61h0a5.44,5.44,0,0,1,5.25,5.61Z"/><path class="cls-5" d="M235.1,449.3a3.15,3.15,0,0,0,3.12,3.18h0a3.14,3.14,0,0,0,3.11-3.18v-2.44a3.15,3.15,0,0,0-3.11-3.18h0a3.16,3.16,0,0,0-3.12,3.18Z"/><path class="cls-7" d="M213.31,466.83a7.37,7.37,0,0,0,7.11,7.6h0a7.36,7.36,0,0,0,7.11-7.6v-37a7.36,7.36,0,0,0-7.11-7.6h0a7.37,7.37,0,0,0-7.11,7.6Z"/><path class="cls-14" d="M227.49,462a5.43,5.43,0,0,0,5.24,5.61h0A5.44,5.44,0,0,0,238,462v-27.3a5.44,5.44,0,0,0-5.25-5.61h0a5.43,5.43,0,0,0-5.24,5.61Z"/></g></g></svg>