<svg xmlns="http://www.w3.org/2000/svg" xmlns:xlink="http://www.w3.org/1999/xlink" viewBox="0 0 748.85 662.2"><defs><style>.cls-1,.cls-13{fill:#36beb9;}.cls-1{opacity:0.1;}.cls-2{fill:url(#linear-gradient);}.cls-3{opacity:0.8;fill:url(#linear-gradient-2);}.cls-4{fill:#fff;}.cls-5{fill:url(#linear-gradient-3);}.cls-6{fill:#3d4751;}.cls-7{fill:#4b5765;}.cls-8{opacity:0.25;fill:url(#linear-gradient-4);}.cls-14,.cls-9{fill:#ec695c;}.cls-10{fill:#f69799;}.cls-11{fill:#de5d58;}.cls-12{fill:#fac9cd;}.cls-14{opacity:0.4;}</style><linearGradient id="linear-gradient" x1="376.76" y1="140.48" x2="376.76" y2="661.08" gradientUnits="userSpaceOnUse"><stop offset="0" stop-color="#fff" stop-opacity="0"/><stop offset="0.27" stop-color="#79ccc9" stop-opacity="0.09"/><stop offset="0.64" stop-color="#36beb9" stop-opacity="0.1"/><stop offset="0.99" stop-color="#36beb9" stop-opacity="0.4"/></linearGradient><linearGradient id="linear-gradient-2" x1="173.68" y1="426.7" x2="281.45" y2="426.7" gradientUnits="userSpaceOnUse"><stop offset="0.1" stop-color="#fff" stop-opacity="0"/><stop offset="0.38" stop-color="#79ccc9" stop-opacity="0.09"/><stop offset="0.64" stop-color="#36beb9" stop-opacity="0.1"/><stop offset="0.99" stop-color="#36beb9" stop-opacity="0.4"/></linearGradient><linearGradient id="linear-gradient-3" x1="368.08" y1="60.33" x2="368.08" y2="306.6" gradientUnits="userSpaceOnUse"><stop offset="0" stop-color="#4b5765" stop-opacity="0"/><stop offset="0.31" stop-color="#4b5765" stop-opacity="0.01"/><stop offset="0.54" stop-color="#4b5765" stop-opacity="0.36"/><stop offset="0.84" stop-color="#4b5765"/></linearGradient><linearGradient id="linear-gradient-4" x1="487.78" y1="344.14" x2="487.78" y2="662.2" gradientUnits="userSpaceOnUse"><stop offset="0.2" stop-color="#fff" stop-opacity="0"/><stop offset="0.99" stop-color="#fff"/></linearGradient></defs><title>hijacking-the-brain_2</title><g id="Layer_2" data-name="Layer 2"><g id="Layer_1-2" data-name="Layer 1"><path class="cls-1" d="M748.85,266.82V661H3.1c-1-.84-2.07-1.69-3.1-2.54v-633c130.48-58,303.28-10.37,376.1,76.66,16.55,19.79,25.13,33.19,29.32,40.66a59.08,59.08,0,0,1,3.56,7.15c3,4.68,5.83,9.07,8.42,13.18,11.48,18.23,19,31.27,26.57,42.25a146.91,146.91,0,0,0,24.26,27.76c10.52,9.43,22.41,20.08,39.9,26.75,22.87,8.72,42.63,5.79,62.9.45,13.69-3.61,27.62-8.32,42.88-11.3C658.85,240.26,707.25,248.18,748.85,266.82Z"/><path class="cls-2" d="M579.84,140.48q-5.55,39.65-11,79.35-4.39,31.63-8.78,63.25-26.24,189-52.51,378h-280l-53.82-520.6a657.4,657.4,0,0,0,207,32.27q11.76,0,23.11-.55c6.88-.28,13.66-.68,20.32-1.16A657.41,657.41,0,0,0,579.84,140.48Z"/><polygon class="cls-3" points="227.36 662.2 173.68 191.19 200.52 191.19 281.45 662.2 227.36 662.2"/><path class="cls-4" d="M393.2,454.94a5,5,0,0,0,5-5l.21-37.95-10-.06-.21,37.95A5,5,0,0,0,393.2,454.94Z"/><path class="cls-4" d="M340,454.65a5,5,0,0,0,5.05-5l.21-38-10.05,0L335,449.6A5,5,0,0,0,340,454.65Z"/><polygon class="cls-5" points="375.47 306.6 376.81 60.33 360.63 68.2 359.34 306.51 375.47 306.6"/><path class="cls-6" d="M380.31,336.39l-26.13-.14-24,25.74a8.57,8.57,0,0,0-2.29,5.79l-.2,35.65,78.31.43.2-35.65A8.56,8.56,0,0,0,404,362.4Z"/><rect class="cls-7" x="358.69" y="356.64" width="16.37" height="94.01" rx="4.08" ry="4.08" transform="translate(-38.78 768.3) rotate(-89.68)"/><path class="cls-7" d="M358.93,306.51l16.95.09a3,3,0,0,1,3,2.83l1.46,27-26.13-.14,1.75-26.94A3,3,0,0,1,358.93,306.51Z"/><polygon class="cls-6" points="375.47 306.6 359.34 306.51 359.39 296.71 375.47 306.6"/><polygon class="cls-8" points="489.39 662.2 530.48 344.14 509.94 344.14 445.08 662.15 489.39 662.2"/><path class="cls-9" d="M365.91,429.64c2.86-2.43,16.47-13.42,35.95-11.9a49.38,49.38,0,0,1,26.49,10.48c12.13-5.14,25.72-2.65,34,6,8.84,9.27,7.7,21.57,7.5,23.49a32.07,32.07,0,0,1,17.49,16.49,31.65,31.65,0,0,1,1.5,21,30.92,30.92,0,0,1,11.49,20c1.72,13.34-6.27,22.62-7.5,24,0,1.76-.93,30.1-25.48,45a53.54,53.54,0,0,1-55.86-.59Q388.68,506.6,365.91,429.64Z"/><path class="cls-10" d="M373.65,434.73a39.29,39.29,0,0,1,51.51,0c11.12-4.7,23.57-2.42,31.14,5.52,8.1,8.49,7.06,19.76,6.87,21.52a29.39,29.39,0,0,1,16,15.11,29,29,0,0,1,1.37,19.24,28.29,28.29,0,0,1,10.53,18.32c1.58,12.22-5.75,20.72-6.86,22,0,1.4-.6,27.58-23.36,41.21-21.61,13-43.73,2.93-45.46,2.11Z"/><path class="cls-11" d="M279.59,563.53,343,575.12l60.77,8.51a60.74,60.74,0,0,1-14.1,9.17c-22.51,10.51-45,3.85-52.44,1.28C314,602,292,596.48,283.43,582.72,281.72,580,278.59,573.73,279.59,563.53Z"/><path class="cls-9" d="M369,432.88c1.61-.16,21.41-1.78,32.78,12a30.3,30.3,0,0,1,6.69,16.42c1,.21,12.87,3,17.34,14.22,4,10.09-1.26,18.79-1.95,19.88,3.14,2.52,9.49,8.36,12,17.68,5.32,19.48-11.14,35.17-12,36,4.32,15.33-.27,23.33-2,25.89-10.48,15.44-43.79,19.31-79.6,1.9a53.3,53.3,0,0,1-33.45,5A51.14,51.14,0,0,1,280,566.13c-17.47-1.62-26.74-9.31-29.87-12.24-20.68-19.32-17.08-57.52,2.55-72.19a35.73,35.73,0,0,1,12.6-5.88c-.12-.71-2.77-17.13,10.71-27.78,12.41-9.81,27.5-6,28.76-5.69.65-1.65,7.11-17.45,24.76-22.1A39.26,39.26,0,0,1,369,432.88Z"/><path class="cls-10" d="M365.38,441.35c1.42-.14,19-1.58,29.1,10.65a27,27,0,0,1,5.94,14.58c.85.19,11.42,2.7,15.39,12.63,3.58,9-1.12,16.68-1.73,17.65a31,31,0,0,1,10.69,15.69c4.72,17.29-9.89,31.22-10.69,32,3.83,13.61-.24,20.72-1.79,23-9.3,13.71-38.87,17.14-70.67,1.68a47.25,47.25,0,0,1-29.69,4.49,45.41,45.41,0,0,1-25.54-14c-15.51-1.44-23.74-8.27-26.52-10.87-18.36-17.15-15.17-51.06,2.26-64.09a31.76,31.76,0,0,1,11.19-5.21c-.11-.64-2.46-15.22,9.51-24.67,11-8.71,24.41-5.35,25.53-5.05.57-1.46,6.32-15.49,22-19.62A34.84,34.84,0,0,1,365.38,441.35Z"/><path class="cls-9" d="M265.34,476c-.14,2.23-.58,12.49,6.75,19.62.44.43.9.83,1.35,1.2a1.67,1.67,0,0,0,2.62-1.87,47.88,47.88,0,0,1,.68-34.54Z"/><path class="cls-9" d="M400.54,465.48a42.75,42.75,0,0,1-.39,5A45.71,45.71,0,0,1,397,482a1.65,1.65,0,0,0,2.47,2,27.86,27.86,0,0,0,10.33-14.55,6.85,6.85,0,0,0-3.35-3.87A7,7,0,0,0,400.54,465.48Z"/><path class="cls-9" d="M308.77,448.74a11.55,11.55,0,0,0-.9,7.15c.64,2.91,2.49,4.79,1.72,5.93-.52.76-1.88.74-3,.6a11.72,11.72,0,0,1-4.35-3c-4.5-5-2.73-12.11-2.53-12.89a8.56,8.56,0,0,1,6.1.08A8.19,8.19,0,0,1,308.77,448.74Z"/><path class="cls-12" d="M263.71,501.81c-.44.35-5.73,4.65-5.69,11.37a12.08,12.08,0,0,0,3.3,8.24,1.35,1.35,0,0,1,.13,1.64c-1.1,1.86-3.11,6-2,10.63a12,12,0,0,0,9.4,8.85,1.5,1.5,0,0,0,1.54-2.25,14.53,14.53,0,0,1-2.29-11.39,15.08,15.08,0,0,1,2.49-5.37,1.37,1.37,0,0,0-.21-1.95,16.52,16.52,0,0,1-5.9-7.16A19.53,19.53,0,0,1,263.71,501.81Z"/><path class="cls-9" d="M463.32,458.63a42.56,42.56,0,0,1-.38,4.86,44.27,44.27,0,0,1-3.07,11.2,1.6,1.6,0,0,0,2.4,1.92,27.19,27.19,0,0,0,10.08-14.18,6.67,6.67,0,0,0-3.27-3.78A6.83,6.83,0,0,0,463.32,458.63Z"/><path class="cls-9" d="M344.26,571.29a76.24,76.24,0,0,1-8.42-8.22,75.37,75.37,0,0,1-8.56-11.92,1.73,1.73,0,0,0-3.22,1,31.39,31.39,0,0,0,11.21,22.82c2.77,2.15,6.2,2,7.87.27A5.12,5.12,0,0,0,344.26,571.29Z"/><path class="cls-9" d="M315,503c10.71-8.71,24.39-6.33,24.34-7.39-.06-1.27-19.91-7.17-31.38,3.95-10.24,9.91-7.46,27.22-5.83,27.53S303.63,512.26,315,503Z"/><path class="cls-12" d="M438.21,573.62c.54.18,7,2.25,12.63-1.47a12.09,12.09,0,0,0,5.09-7.28,1.35,1.35,0,0,1,1.29-1c2.17-.09,6.77-.71,10-4.13A12,12,0,0,0,469.48,547a1.51,1.51,0,0,0-2.73-.06,14.5,14.5,0,0,1-8.26,8.16,15.31,15.31,0,0,1-5.86.87,1.37,1.37,0,0,0-1.52,1.24,16.54,16.54,0,0,1-2.75,8.86A19.5,19.5,0,0,1,438.21,573.62Z"/><path class="cls-12" d="M404.05,504.53a1.19,1.19,0,0,1,1.66-1.67c7.73,5.37,11.64,14.79,9.61,23.55A22.47,22.47,0,0,1,401.52,542a1.2,1.2,0,0,1-1.19-2,25.68,25.68,0,0,0,3.72-35.4Z"/><path class="cls-13" d="M248.88,354.37l-26-33.81a1.82,1.82,0,0,0-3.2,1.58l16.9,62.67a2.72,2.72,0,0,0,4.59,1.18l10.08-10.49,26,33.81a1.81,1.81,0,0,0,3.19-1.58l-16.9-62.68a2.72,2.72,0,0,0-4.58-1.17Z"/><path class="cls-13" d="M471.77,353l-14.92,19.41a1,1,0,0,1-1.84-.91l9.7-36a1.56,1.56,0,0,1,2.63-.68l5.79,6,14.92-19.41a1,1,0,0,1,1.84.91l-9.7,36a1.56,1.56,0,0,1-2.63.67Z"/><path class="cls-4" d="M340,454.65a5,5,0,0,0,5.05-5l.21-38-10.05,0L335,449.6A5,5,0,0,0,340,454.65Z"/><path class="cls-10" d="M319.67,455.49a13.4,13.4,0,0,1,19.2-6.38,13.48,13.48,0,0,1,12.36-5.25,13.69,13.69,0,0,1,11.36,11.63Z"/><path class="cls-12" d="M320.18,463.23c.24-.51,3.2-6.66,9.74-8.18a12.1,12.1,0,0,1,8.79,1.3,1.34,1.34,0,0,0,1.61-.25c1.56-1.51,5.16-4.43,9.88-4.45A12,12,0,0,1,361,458.74a1.51,1.51,0,0,1-1.83,2,14.49,14.49,0,0,0-11.61.41,15.35,15.35,0,0,0-4.66,3.66,1.35,1.35,0,0,1-1.94.25,16.52,16.52,0,0,0-8.33-4.07A19.54,19.54,0,0,0,320.18,463.23Z"/><path class="cls-9" d="M436.49,282.76,426,296.42a.73.73,0,0,1-1.29-.64l6.83-25.32a1.1,1.1,0,0,1,1.85-.47l4.07,4.24L448,260.56a.74.74,0,0,1,1.29.64l-6.83,25.33a1.1,1.1,0,0,1-1.85.47Z"/><path class="cls-14" d="M301.18,273.82l-10.49-13.65a.73.73,0,0,0-1.29.64l6.82,25.3a1.1,1.1,0,0,0,1.85.47l4.07-4.23L312.63,296a.73.73,0,0,0,1.29-.64l-6.82-25.3a1.1,1.1,0,0,0-1.85-.47Z"/></g></g></svg>