<svg xmlns="http://www.w3.org/2000/svg" xmlns:xlink="http://www.w3.org/1999/xlink" viewBox="0 0 748.85 663.01"><defs><style>.cls-1,.cls-5{fill:#36beb9;}.cls-1{opacity:0.1;}.cls-2{opacity:0.7;fill:url(#linear-gradient);}.cls-3{fill:#4b5765;}.cls-4{fill:#3d4751;}.cls-14,.cls-6{fill:#e9e8e8;}.cls-7{fill:#de5d58;}.cls-8{fill:#f5ce62;}.cls-9{fill:#fff;}.cls-10{fill:#d8e9e9;}.cls-11{fill:#ec695c;}.cls-12{fill:none;}.cls-13{fill:#677887;}.cls-14{opacity:0.2;}.cls-15{fill:#45c0b8;}</style><linearGradient id="linear-gradient" y1="619.57" x2="748.85" y2="619.57" gradientUnits="userSpaceOnUse"><stop offset="0" stop-color="#36beb9" stop-opacity="0.4"/><stop offset="0.27" stop-color="#96d6d3" stop-opacity="0.32"/><stop offset="0.53" stop-color="#fff" stop-opacity="0"/><stop offset="0.77" stop-color="#36beb9" stop-opacity="0.1"/><stop offset="1" stop-color="#36beb9" stop-opacity="0.4"/></linearGradient></defs><title>intro_2</title><g id="Layer_2" data-name="Layer 2"><g id="Layer_1-2" data-name="Layer 1"><path class="cls-1" d="M748.85,266.82V661H3.1c-1-.84-2.07-1.69-3.1-2.54v-633c130.48-58,303.28-10.37,376.1,76.66,16.55,19.79,25.13,33.19,29.32,40.66a59.08,59.08,0,0,1,3.56,7.15c3,4.68,5.83,9.07,8.42,13.18,11.48,18.23,19,31.27,26.57,42.25a146.51,146.51,0,0,0,21.86,25.56c.78.74,1.58,1.47,2.4,2.2,1.57,1.4,3.16,2.83,4.81,4.28,3.1,2.72,6.37,5.49,9.89,8.17a107.73,107.73,0,0,0,13.63,8.94,92.15,92.15,0,0,0,11.57,5.36,83,83,0,0,0,18.42,4.77h0c15.47,2.13,29.84-.46,44.47-4.32,13.69-3.61,27.62-8.32,42.88-11.3C658.85,240.26,707.25,248.18,748.85,266.82Z"/><path class="cls-2" d="M748.85,610.39V663H10.07Q4.69,661.3,0,659.54V614.71c40-15.07,119.1-27.2,218.68-33.61q7.77-.5,15.7-1c20-1.14,40.82-2.06,62.22-2.72,21-.66,42.7-1.08,64.81-1.23l6.39,0q6.48,0,13,0c25,0,49.4.33,73.12,1l7.15.2c22.55.67,44.42,1.61,65.47,2.81q11.84.67,23.3,1.45c19.78,1.34,38.72,2.9,56.67,4.67C667.27,592.23,716.65,600.57,748.85,610.39Z"/><path class="cls-3" d="M230.26,352H594.94a11.59,11.59,0,0,1,11.59,11.59V596.22a2.2,2.2,0,0,1-2.2,2.2H220.88a2.2,2.2,0,0,1-2.2-2.2V363.54A11.59,11.59,0,0,1,230.26,352Z"/><path class="cls-4" d="M639.58,598.81a19.49,19.49,0,0,1-.68,1.92.34.34,0,0,1-.07.18,21.12,21.12,0,0,1-2.5,4.56,10.84,10.84,0,0,1-.84,1.15l-.61.75c-5.36,6.33-12.76,8.85-15.86,9.75a3.58,3.58,0,0,1-.91.1H203.42c-1.62-.05-11.92-.55-18.94-7.68a19.51,19.51,0,0,1-3.14-4.14,18.77,18.77,0,0,1-2.3-6.89c-.17-1.34,1.15-2.49,2.84-2.49H636.77C638.63,596,640,597.39,639.58,598.81Z"/><path class="cls-3" d="M363,596h92.72c-.3,1.8-.61,3.6-.91,5.4a3.09,3.09,0,0,1-3.09,3.09H367a3.09,3.09,0,0,1-3.1-3.09Z"/><rect class="cls-5" x="234.38" y="365.35" width="357.01" height="216.2"/><rect class="cls-6" x="296.6" y="256.51" width="229.96" height="325.05"/><path class="cls-3" d="M299.32,232.92h224.5a2.73,2.73,0,0,1,2.73,2.73v20.86a0,0,0,0,1,0,0h-230a0,0,0,0,1,0,0V235.65A2.73,2.73,0,0,1,299.32,232.92Z"/><circle class="cls-7" cx="305.84" cy="243.08" r="3.67"/><circle class="cls-8" cx="317.24" cy="243.08" r="3.67"/><circle class="cls-5" cx="329.41" cy="243.07" r="3.67"/><rect class="cls-9" x="342.5" y="239.4" width="164.87" height="8.17" rx="4.08" ry="4.08"/><rect class="cls-9" x="307.41" y="312.65" width="47" height="66.53"/><rect class="cls-9" x="296.59" y="256.51" width="229.96" height="38.25"/><rect class="cls-10" x="307.41" y="312.65" width="47" height="29.26"/><circle class="cls-11" cx="323.53" cy="342.97" r="10.11"/><rect class="cls-5" x="493.45" y="270.57" width="21.99" height="10.13" rx="5.06" ry="5.06"/><circle class="cls-6" cx="482.46" cy="275.63" r="6.45"/><rect class="cls-6" x="422.56" y="270.57" width="49.87" height="10.13" rx="5.06" ry="5.06"/><rect class="cls-9" x="361.41" y="312.65" width="99.68" height="268.9"/><rect class="cls-9" x="469" y="312.65" width="47" height="82.37"/><circle class="cls-6" cx="481.96" cy="326.61" r="8"/><rect class="cls-6" x="493.26" y="320.71" width="18.1" height="2.45"/><rect class="cls-6" x="493.26" y="324.91" width="9.05" height="2.45"/><circle class="cls-6" cx="481.96" cy="347.59" r="8"/><rect class="cls-6" x="493.26" y="341.69" width="18.1" height="2.45"/><rect class="cls-6" x="493.26" y="345.88" width="9.05" height="2.45"/><circle class="cls-6" cx="481.96" cy="368.56" r="8"/><rect class="cls-6" x="493.26" y="362.66" width="18.1" height="2.45"/><rect class="cls-6" x="493.26" y="366.85" width="9.05" height="2.45"/><rect class="cls-9" x="307.41" y="387.06" width="47" height="82.37"/><rect class="cls-10" x="361.41" y="312.65" width="99.68" height="25.11"/><circle class="cls-9" cx="373.6" cy="324.91" r="6.45"/><rect class="cls-9" x="385.64" y="319.84" width="70.31" height="10.13" rx="1.05" ry="1.05"/><circle class="cls-6" cx="374.94" cy="357.35" r="8"/><rect class="cls-6" x="386.24" y="351.45" width="18.1" height="2.45"/><rect class="cls-6" x="386.24" y="357.75" width="65.78" height="2.45"/><rect class="cls-10" x="367.81" y="370.59" width="86.14" height="60.16" rx="4.68" ry="4.68"/><circle class="cls-6" cx="374.94" cy="453.83" r="8"/><rect class="cls-6" x="386.24" y="447.93" width="18.1" height="2.45"/><rect class="cls-6" x="386.24" y="454.23" width="65.78" height="2.45"/><rect class="cls-10" x="367.81" y="467.07" width="86.14" height="60.16" rx="4.68" ry="4.68"/><circle class="cls-6" cx="374.94" cy="552.41" r="8"/><rect class="cls-6" x="386.24" y="546.51" width="18.1" height="2.45"/><rect class="cls-6" x="386.24" y="552.8" width="65.78" height="2.45"/><path class="cls-10" d="M453.94,569.77v11.79H367.8V569.77a4.13,4.13,0,0,1,4.13-4.11h77.9A4.12,4.12,0,0,1,453.94,569.77Z"/><rect class="cls-3" x="151.29" y="395.12" width="109.22" height="222.59" rx="14.32" ry="14.32" transform="translate(-1.31 0.53) rotate(-0.15)"/><path class="cls-9" d="M253.27,411.35l.49,189a8.61,8.61,0,0,1-8.58,8.63l-77.45.2a8.61,8.61,0,0,1-8.63-8.58l-.49-189a8.6,8.6,0,0,1,8.58-8.62l10.15,0a2,2,0,0,1,1.27.52,2,2,0,0,1,.45.69v1.45a5,5,0,0,0,5.06,5l42.73-.11a5,5,0,0,0,5-5.06v-1.59a1.28,1.28,0,0,1,.19-.44,1.72,1.72,0,0,1,1.37-.64l11.19,0A8.6,8.6,0,0,1,253.27,411.35Z"/><path class="cls-12" d="M176.62,401.79h-.21A.72.72,0,0,1,176.62,401.79Z"/><rect class="cls-13" x="198.4" y="404.41" width="13.23" height="2.07" rx="1.03" ry="1.03" transform="matrix(1, 0, 0, 1, -1.05, 0.53)"/><circle class="cls-13" cx="217.02" cy="405.41" r="1.84"/><path class="cls-3" d="M260,446.46h0a1.74,1.74,0,0,1,1.74,1.74v22.29a1.74,1.74,0,0,1-1.74,1.74h0a0,0,0,0,1,0,0V446.46A0,0,0,0,1,260,446.46Z" transform="translate(-1.19 0.68) rotate(-0.15)"/><path class="cls-3" d="M149.87,461.67h0a1.74,1.74,0,0,1,1.74,1.74v13a1.74,1.74,0,0,1-1.74,1.74h0a0,0,0,0,1,0,0V461.67A0,0,0,0,1,149.87,461.67Z" transform="translate(302.68 939.46) rotate(179.85)"/><path class="cls-3" d="M149.81,441h0a1.74,1.74,0,0,1,1.74,1.74v13a1.74,1.74,0,0,1-1.74,1.74h0a0,0,0,0,1,0,0V441A0,0,0,0,1,149.81,441Z" transform="translate(302.52 898.2) rotate(179.85)"/><path class="cls-3" d="M149.76,425h0a1.74,1.74,0,0,1,1.74,1.74v5.56a1.74,1.74,0,0,1-1.74,1.74h0a0,0,0,0,1,0,0v-9a0,0,0,0,1,0,0Z" transform="translate(302.37 858.73) rotate(179.85)"/><path class="cls-14" d="M245.47,402.61h0L159.1,603.51l-.47-192a8.87,8.87,0,0,1,4.24-7.6l0,0a8.7,8.7,0,0,1,4.12-1.06l10.25,0A1.9,1.9,0,0,1,179,404v1.48a5.11,5.11,0,0,0,5.12,5.11l43.14-.11a5.12,5.12,0,0,0,5.09-5.14v-1.61a1.15,1.15,0,0,1,.19-.45,1.73,1.73,0,0,1,1.38-.65l11.3,0Z"/><circle class="cls-10" cx="236.49" cy="593.52" r="8.99"/><circle class="cls-10" cx="176.49" cy="593.52" r="8.99"/><rect class="cls-10" x="166.74" y="459.82" width="78.73" height="26.78" rx="6.06" ry="6.06"/><rect class="cls-10" x="166.74" y="493.21" width="78.73" height="26.78" rx="6.06" ry="6.06"/><rect class="cls-10" x="166.74" y="527.21" width="78.73" height="26.78" rx="6.06" ry="6.06"/><path class="cls-15" d="M535.87,124.32H478.78a11.59,11.59,0,0,0-11.59,11.59v50.68a11.59,11.59,0,0,0,11.59,11.59h12.7l13.3,12.7a3.7,3.7,0,0,0,5.1,0l13.43-12.71h12.56a11.59,11.59,0,0,0,11.59-11.59V135.91A11.59,11.59,0,0,0,535.87,124.32Z"/><path class="cls-9" d="M516,144a9,9,0,0,1,6.48,2.68.45.45,0,0,0,.32.16h.1a19.89,19.89,0,0,0,4.85-1.79c0-.05.58-.32.68-.37a9.31,9.31,0,0,1-3.95,5,17.62,17.62,0,0,0,5.16-1.36,14.79,14.79,0,0,1-1.31,1.73,19.22,19.22,0,0,1-3.06,2.85.38.38,0,0,0-.16.31v1.58h0a26.81,26.81,0,0,1-6.42,16.7,24.28,24.28,0,0,1-12.38,7.8,29,29,0,0,1-4.64.84h-4.42a17.5,17.5,0,0,1-3.69-.47,26.07,26.07,0,0,1-8.21-3.32l-.16-.16c.68,0,1.31.1,2,.1a18.53,18.53,0,0,0,5.06-.68,17.29,17.29,0,0,0,6.32-3.21,9.32,9.32,0,0,1-8.48-6.32,8.87,8.87,0,0,0,1.63.1,9.56,9.56,0,0,0,2.42-.31,9.19,9.19,0,0,1-5.21-3.27,9,9,0,0,1-2-5.85,8.44,8.44,0,0,0,4,1.11,9.21,9.21,0,0,1-2.74-12.17,2.32,2.32,0,0,1,.37.42A25.77,25.77,0,0,0,503,154.66a32.36,32.36,0,0,0,3.74.53H507c.11,0,.11-.06.11-.22a9.4,9.4,0,0,1-.16-2.42,8.79,8.79,0,0,1,3.16-6.37A8.29,8.29,0,0,1,515,144c.21,0,.58-.05,1-.05Z"/><circle class="cls-11" cx="536.62" cy="134.58" r="23.67"/><path class="cls-9" d="M536.74,125.82c3.5,0,5.36,2,5.36,4.5a4,4,0,0,1-2.56,3.85v.09a4.06,4.06,0,0,1,2.86,4.25c0,2.77-1.95,4.82-5.52,4.82-3.36,0-5.9-1.68-6-5.24H534a2.54,2.54,0,0,0,2.8,2.51,2.25,2.25,0,0,0,2.47-2.37c0-1.92-1.21-2.61-3.64-2.61H535v-2.69h.67c1.91,0,3.31-.53,3.31-2.21a2,2,0,0,0-2.31-2.12,2.2,2.2,0,0,0-2.37,2.1h-3.2C531.23,127.55,533.47,125.82,536.74,125.82Z"/><rect class="cls-11" x="173.28" y="465.77" width="14.21" height="14.21" rx="3.43" ry="3.43"/><circle class="cls-5" cx="180.39" cy="507.09" r="6.89"/><circle class="cls-5" cx="180.39" cy="541.09" r="6.89"/></g></g></svg>