<svg xmlns="http://www.w3.org/2000/svg" viewBox="0 0 98.92 75.86"><defs><style>.cls-1{fill:#36beb9;}.cls-2{font-size:9px;font-family:Poppins-Regular, Poppins;}.cls-2,.cls-3{fill:#fff;}.cls-3{font-size:13px;font-family:Poppins-SemiBold, Poppins;font-weight:700;}</style></defs><title>investment</title><g id="Layer_2" data-name="Layer 2"><g id="Layer_1-2" data-name="Layer 1"><path class="cls-1" d="M95.36,46.56c-1.5,5.32-6,18.87-15.75,24.2a25.17,25.17,0,0,1-8.47,2.66c-4,.49-6.38-.28-9.8-.89a38.9,38.9,0,0,0-7.51-.62,30,30,0,0,0-5.9.45,17.31,17.31,0,0,0-2.28.6c-3,.92-6,1.71-9,2.59-5.33,1.56-15.12-3-21.49-8C12.31,65.31,3.43,58.13.72,45.33a38.24,38.24,0,0,1,.56-17.22C2.13,24.88,5,14.72,14.61,7.57,23.48,1,38.1-2.83,47.92,2.57,52,4.83,56.61,9.43,61.28,8.25c.88-.22,3.4-1,7.27-1.75A28.37,28.37,0,0,1,71.77,6c4.59-.45,12.71-1.24,19.39,5.17a24.14,24.14,0,0,1,6.43,10.45C101.33,33.48,96.06,45.08,95.36,46.56Z"/><text class="cls-2" transform="translate(36.46 30.07)">Step 4</text><text class="cls-3" transform="translate(12.58 48.49)">Investment</text></g></g></svg>