<?xml version="1.0" encoding="utf-8"?>
<!-- Generator: Adobe Illustrator 22.1.0, SVG Export Plug-In . SVG Version: 6.00 Build 0)  -->
<svg version="1.1" id="Layer_1" xmlns="http://www.w3.org/2000/svg" xmlns:xlink="http://www.w3.org/1999/xlink" x="0px" y="0px"
	 viewBox="0 0 98.9 75.9" style="enable-background:new 0 0 98.9 75.9;" xml:space="preserve">
<style type="text/css">
	.st0{fill:#35BEB9;}
	.st1{fill:none;stroke:#FFFFFF;stroke-width:5.53;stroke-linecap:round;stroke-miterlimit:10;}
</style>
<title>next</title>
<g id="Layer_2_1_">
	<g id="Layer_1-2">
		<path class="st0" d="M3.6,46.6c1.5,5.3,6,18.9,15.8,24.2c2.6,1.4,5.5,2.3,8.5,2.7c4,0.5,6.4-0.3,9.8-0.9c2.5-0.4,5-0.7,7.5-0.6
			c2,0,4,0.1,5.9,0.4c0.8,0.1,1.5,0.3,2.3,0.6c3,0.9,6,1.7,9,2.6c5.3,1.6,15.1-3,21.5-8c2.8-2.2,11.7-9.4,14.4-22.2
			c1.1-5.7,0.9-11.6-0.6-17.2C96.8,24.9,94,14.7,84.3,7.6C75.4,1,60.8-2.8,51,2.6c-4.1,2.3-8.7,6.9-13.3,5.7c-0.9-0.2-3.4-1-7.3-1.8
			c-1.1-0.2-2.2-0.4-3.2-0.5c-4.6-0.4-12.7-1.2-19.4,5.2c-3,2.9-5.2,6.5-6.4,10.5C-2.4,33.5,2.9,45.1,3.6,46.6z"/>
		<path class="st1" d="M42.1,26.6l15.8,9.9c0.8,0.4,1.2,1.3,0.8,2.1c-0.2,0.4-0.4,0.6-0.8,0.8l-15.8,9.9"/>
	</g>
</g>
</svg>
