<svg xmlns="http://www.w3.org/2000/svg" xmlns:xlink="http://www.w3.org/1999/xlink" viewBox="0 0 912.28 656.48"><defs><style>.cls-1,.cls-14,.cls-4,.cls-5,.cls-6{fill:none;}.cls-2,.cls-22,.cls-9{fill:#36beb9;}.cls-17,.cls-2{opacity:0.1;}.cls-3{fill:url(#linear-gradient);}.cls-4,.cls-5,.cls-6{stroke:#ec695c;stroke-width:4.28px;}.cls-14,.cls-4,.cls-5,.cls-6{stroke-miterlimit:10;}.cls-5{stroke-dasharray:17.49 8.75;}.cls-6{stroke-dasharray:17.41 8.71;}.cls-23,.cls-7{fill:#4b5765;}.cls-10,.cls-8{fill:#ec695c;}.cls-8{opacity:0.4;}.cls-11{fill:#f69799;}.cls-12{fill:#fac9cd;}.cls-13{fill:#fff;}.cls-14{stroke:#46c0b8;stroke-width:6.05px;}.cls-15{fill:#46c0b8;}.cls-16{fill:#45c0b8;}.cls-18{clip-path:url(#clip-path);}.cls-19{fill:#39393d;}.cls-20{fill:#d8e9e9;}.cls-21{fill:#6d6e7c;}.cls-22{opacity:0.5;}.cls-23{opacity:0.2;}.cls-24{fill:#f9f9fa;}</style><linearGradient id="linear-gradient" x1="560.19" y1="267.96" x2="560.19" y2="656.48" gradientUnits="userSpaceOnUse"><stop offset="0" stop-color="#fff" stop-opacity="0"/><stop offset="0.27" stop-color="#79ccc9" stop-opacity="0.09"/><stop offset="0.64" stop-color="#36beb9" stop-opacity="0.1"/><stop offset="0.99" stop-color="#36beb9" stop-opacity="0.4"/></linearGradient><clipPath id="clip-path"><path class="cls-1" d="M301.52,212.11a7.08,7.08,0,0,0-8.75-3.75,56.4,56.4,0,0,1-18.55,3.08,57.38,57.38,0,0,1,0-114.75c.42,0,1.09,0,2,0a7.08,7.08,0,0,0,6.28-3.81,48.75,48.75,0,0,1,81.8-7.41,7.1,7.1,0,0,0,6.5,2.67,85,85,0,0,1,10.83-.68,88.06,88.06,0,1,1-80.12,124.61Z"/></clipPath></defs><title>nucleus-accumbens</title><g id="Layer_2" data-name="Layer 2"><g id="Layer_1-2" data-name="Layer 1"><path class="cls-2" d="M912.28,264.82V656.48H625.78c-3.55-.06-7.24-.07-11.08-.05l-5.64.05H165.49c-1-.56-1.7-1-2.06-1.18l-.29-.17C82.59,605.2,45.34,531.17,32.73,502.3-27.74,363.8-12.38,139.51,146.59,45.09q8.22-4.89,16.84-9.24C267.24-16.75,409.58-12,477.67,53.43,492,67.17,566.29,144.35,600.34,201c4.87,8.12,24.89,41.51,59.14,52.11,27.41,8.48,39.53-1.56,78.71-7.79,7.8-1.21,16.74-2.31,27.07-3.06C800.23,239.71,859.64,235.38,912.28,264.82Z"/><path class="cls-3" d="M711.71,268q-4.14,29.58-8.22,59.21Q680.63,491.8,657.75,656.48H448.83L408.67,268A490.2,490.2,0,0,0,563.13,292c11.16,0,22-.52,32.4-1.28A490.33,490.33,0,0,0,711.71,268Z"/><path class="cls-4" d="M479.6,547.39c-1.56-2.28-3.21-4.62-5-7"/><path class="cls-5" d="M469.26,533.52c-14.77-18-35.24-35.71-62-40.24-31.66-5.36-47.25,11.94-79.37,7.68-49.48-6.56-80.3-56.89-83.86-62.89-34.46-58.16-11.81-153.62,62.18-232.24"/><path class="cls-4" d="M309.25,202.65q3-3.06,6-6.09"/><path class="cls-4" d="M602.29,485.86c1.56-2.28,3.21-4.62,5-7"/><path class="cls-6" d="M612.61,472c14.77-18,35.25-35.74,62-40.26,31.67-5.36,47.26,11.93,79.38,7.68,49.57-6.58,80.22-56.77,83.85-62.9,32.79-55.37,16.95-140.42-42.94-209.73"/><path class="cls-4" d="M792,163.53q-2.84-3.18-5.79-6.31"/><path class="cls-7" d="M486.2,264.31l3.63,10a1.63,1.63,0,0,0,.94,1l10.75,4.17a1.62,1.62,0,0,1,0,3l-10.9,4.05a1.64,1.64,0,0,0-1,1q-1.69,5-3.41,9.89a1.62,1.62,0,0,1-3.05,0q-1.74-4.87-3.49-9.73a1.62,1.62,0,0,0-.94-1L467.8,282.5a1.62,1.62,0,0,1,0-3l10.57-4.19a1.62,1.62,0,0,0,.91-.92l3.9-10.09A1.62,1.62,0,0,1,486.2,264.31Z"/><circle class="cls-8" cx="560.18" cy="384.6" r="4.96"/><path class="cls-7" d="M617.87,349.55l2.49,6.87a1.13,1.13,0,0,0,.64.66l7.37,2.85a1.11,1.11,0,0,1,0,2.08l-7.47,2.78a1.09,1.09,0,0,0-.66.68q-1.17,3.38-2.33,6.77a1.11,1.11,0,0,1-2.1,0l-2.39-6.66a1.1,1.1,0,0,0-.64-.66l-7.5-2.92a1.1,1.1,0,0,1,0-2.06l7.25-2.88a1.1,1.1,0,0,0,.62-.63l2.67-6.91A1.11,1.11,0,0,1,617.87,349.55Z"/><circle class="cls-9" cx="619.63" cy="293.07" r="4.96"/><path class="cls-9" d="M576.47,238.13,579,245a1.11,1.11,0,0,0,.65.66l7.36,2.86a1.11,1.11,0,0,1,0,2.07l-7.47,2.78a1.15,1.15,0,0,0-.67.68q-1.16,3.39-2.33,6.77a1.11,1.11,0,0,1-2.09,0l-2.4-6.67a1.13,1.13,0,0,0-.64-.66l-7.5-2.91a1.11,1.11,0,0,1,0-2.07l7.24-2.87a1.16,1.16,0,0,0,.63-.64c.89-2.3,1.77-4.61,2.66-6.91A1.11,1.11,0,0,1,576.47,238.13Z"/><path class="cls-10" d="M562.25,316.63c-8.92-17.42-32.79-10.84-32.79,6.86,0,20.58,24.14,38.69,32.79,38.69S595,344.07,595,323.49C595,305.79,571.16,299.21,562.25,316.63Z"/><circle class="cls-9" cx="487.46" cy="348.81" r="4.96"/><path class="cls-10" d="M622.11,600.73c1.29-.26,5.62-1.1,7.21-4.41.36-.76.74-2,0-6.44a61.61,61.61,0,0,0-2.13-8.77,32.1,32.1,0,0,1-.8-12.91c2.5-.54,17.62-4.08,26.43-19,9.35-15.86,4.07-31.82,3.28-34.07.79-.94,14.06-17.38,7.39-36.94-4.9-14.38-17.21-20.57-19.7-21.76-1-5.64-4.21-18.6-15.36-29C614.15,414,592.45,410.24,572,417a43.93,43.93,0,0,0-30.79-9.86c-17.88,1.37-28.2,13.47-30,15.6a36,36,0,0,0-36.12,23.4,46.56,46.56,0,0,0-24.22,20.12c-10.84,18.82-3.47,38.13-2.47,40.63-.41,1.44-7.06,25.68,9,43.52,13.39,14.83,36.64,18.74,56.24,8.62a55.58,55.58,0,0,0,51.72,7.8,219.83,219.83,0,0,0,16.69,14.6c12.32,9.72,19.1,15,29.16,17.66C613.16,599.59,617.22,601.68,622.11,600.73Z"/><path class="cls-11" d="M614.09,588.94a3.67,3.67,0,0,0,5.19-4.3A64.94,64.94,0,0,1,617,572.88a66.53,66.53,0,0,1,0-14c1.2-.08,18.74-1.54,27.36-17.22,7.63-13.88,2.06-27.63,1.34-29.32,8.82-8.79,12.1-21.49,8.4-32.71-4.31-13-16.1-18.22-18-19-1-5-4-16.41-14-25.34-13.18-11.77-33.11-14.47-51.53-7.36-1.19-1.26-11.85-12.09-28.12-10.33s-24.5,14.83-25.37,16.29c-.62-.27-11.51-4.86-21.47,2s-9.55,19-9.51,19.61c-1.29,0-17.25.35-26.09,13.74-6.83,10.36-6.59,24.25.71,35-5.38,13.45-3.44,28.45,5.29,38.49,11.6,13.36,33.62,16.11,50.74,4.52a38.14,38.14,0,0,0,49.09,6.08A177.15,177.15,0,0,0,583,569,181.8,181.8,0,0,0,614.09,588.94Z"/><path class="cls-12" d="M521.6,449.9c-.84-.27-11-3.29-19.44,3.46a21,21,0,0,0-7.37,12.78,2.17,2.17,0,0,1-1.93,1.81c-3.35.32-10.43,1.72-15.21,7.79C473,481.63,472.06,490,475,497.56a2.24,2.24,0,0,0,4.22-.11c1.63-4.72,5.09-11.25,12.24-14.52a21.6,21.6,0,0,1,9-1.92,2.21,2.21,0,0,0,2.26-2.23,30.47,30.47,0,0,1,3.65-15.3A30.88,30.88,0,0,1,521.6,449.9Z"/><path class="cls-10" d="M643.58,464.74a48.18,48.18,0,0,0-14.6,9.11,50.73,50.73,0,0,0-12,16.93,51.81,51.81,0,0,0-3.24,10.1,1,1,0,0,1-1.87.14,26.18,26.18,0,0,1,4-24.64,1.72,1.72,0,0,0-1.36-2.77,48.75,48.75,0,0,1-7.13-.52,47.43,47.43,0,0,1-10.25-2.75,1,1,0,0,1,.44-1.87c7.21.69,30.17-1.48,35.15-10,1.25-2.12,1.75-6.08-3-14.1Z"/><path class="cls-10" d="M498.55,554.88a33.65,33.65,0,0,0,9.68-3.18c3.43-1.75,5.15-2.63,5.91-3.92,4.09-6.88-.43-21-6.92-28.33a1.09,1.09,0,0,1,1.42-1.63c14.38,10.28,21.24,22.54,18.42,31.08-.7,2.13-2.54,5.65-8.29,8.87Z"/><path class="cls-12" d="M504.21,528.19a1.09,1.09,0,0,1,2.06-.26,14.74,14.74,0,0,1-.55,13.46c-3.3,5.43-10.61,8.05-17.55,6a1.08,1.08,0,0,1,.05-2.08,21.26,21.26,0,0,0,16-17.12Z"/><path class="cls-10" d="M594.43,424.06c-2.35.15-13.14,1.07-20.83,10C567,441.61,565,452.37,568,462.53a1.54,1.54,0,0,1-2.39,1.71,20.18,20.18,0,0,1-3.56-3.59,21.79,21.79,0,0,1-4-15.37.87.87,0,0,0-1.26-.86,19.21,19.21,0,0,1-9,1.91,1.55,1.55,0,0,1-.59-2.95,55,55,0,0,0,25.2-22.76Z"/><path class="cls-12" d="M618.62,442.71a.73.73,0,0,1,1.07-.95,20.06,20.06,0,0,1,2.54,2.13c1.16,1.16,6.81,7.05,5.38,11.54-1.08,3.37-6.18,5.95-12.74,5.52a.73.73,0,0,1-.21-1.42,15.87,15.87,0,0,0,5.05-2.85c1.33-1.12,2.61-2.22,2.94-4,.25-1.31-.12-2.4-2.08-6.26C620,445.36,619.37,444.11,618.62,442.71Z"/><path class="cls-10" d="M576.26,563.85c.4-8.46,2.4-19.77,10.66-26.33,11.08-8.8,27.36-4.24,27.5-5.8s-16-8.76-30.4-2.08c-13.45,6.24-17.49,20.9-18.2,23.67a27.83,27.83,0,0,0,10.44,10.54Z"/><path class="cls-12" d="M574.42,516.93c13.25-7.55,27.73-2.46,27.87-3.63.17-1.4-20.4-11.44-34.93-1.41-13,9-13.08,28.32-11.36,29S560.38,524.93,574.42,516.93Z"/><path class="cls-13" d="M778.44,45.7a70.72,70.72,0,0,1,0,141.44,67,67,0,0,1-8.7-.55,5.67,5.67,0,0,0-5.21,2.15,39.16,39.16,0,0,1-65.7-6,5.69,5.69,0,0,0-5-3.05c-.74,0-1.28,0-1.62,0a46.08,46.08,0,0,1,0-92.16,45.39,45.39,0,0,1,14.9,2.47,5.68,5.68,0,0,0,7-3A70.67,70.67,0,0,1,778.44,45.7Z"/><path class="cls-14" d="M732.84,107.17a47.25,47.25,0,0,1,15-29.55c14.61-13.1,32.26-11.76,36-11.38a44.14,44.14,0,0,1,40.57,40.93"/><path class="cls-7" d="M737.8,103.4h-7.53a9.16,9.16,0,0,0-9.16,9.17v15.69a9.16,9.16,0,0,0,9.16,9.17h7.53Z"/><rect class="cls-15" x="735.41" y="101.57" width="6.68" height="37.91" rx="3.15" ry="3.15"/><path class="cls-7" d="M818.41,103.4h7.53a9.16,9.16,0,0,1,9.16,9.17v15.69a9.16,9.16,0,0,1-9.16,9.17h-7.53Z"/><rect class="cls-15" x="814.13" y="101.57" width="6.68" height="37.91" rx="3.15" ry="3.15" transform="translate(1634.93 241.05) rotate(180)"/><path class="cls-16" d="M746,148.22c0-2.94,4.28-4.2,7-2.6.08-14.28-.42-15,.84-15.12h.16c4.2.76,7.14,3.7,8.66,8.74a.84.84,0,0,1-1.18,1l-6.89-3.19v11.17C754.62,152.59,746,152.59,746,148.22Z"/><path class="cls-16" d="M751.47,179.63v.43c0,2-2.09,3.52-4.67,3.52s-4.68-1.58-4.68-3.52,2.09-3.53,4.68-3.53a5.68,5.68,0,0,1,3.23.94V166.76c-1.65.43,6.11-1.66-16.46,4.38v13.23c0,2-2.09,3.52-4.67,3.52s-4.68-1.58-4.68-3.52,2.09-3.52,4.68-3.52a5.14,5.14,0,0,1,3.23,1c.22-16.75-.5-17,.58-17.32,18.11-4.53,18.76-5.1,18.76-3.81v4.89a.33.33,0,0,1,0,.36Z"/><g class="cls-17"><path class="cls-7" d="M785.87,159.93v.45c0,1.61-1.61,2.87-3.67,2.87s-3.77-1.26-3.77-2.87,1.61-3,3.77-3a5.87,5.87,0,0,1,1.88.36v-6.37l-11,2.87v9.06c0,1.61-1.61,3-3.77,3-4.93,0-4.93-5.83,0-5.83a4.32,4.32,0,0,1,1.89.44v-7.35c.18-3.05-.45-4.39.71-4.75,13.19-3,13-3.32,13.63-2.78a1.11,1.11,0,0,1,.36.72v13.18Z"/></g><g class="cls-17"><path class="cls-7" d="M691.23,160.58c-1.5-2.53,1.54-5.79,4.67-5.79-7.21-12.33-8-12.72-7-13.43l.14-.09c4-1.49,8-.46,11.9,3.1a.84.84,0,0,1-.5,1.47l-7.55.76,5.7,9.61C700.9,159.93,693.46,164.34,691.23,160.58Z"/></g><path class="cls-13" d="M301.52,212.11a7.08,7.08,0,0,0-8.75-3.75,56.4,56.4,0,0,1-18.55,3.08,57.38,57.38,0,0,1,0-114.75c.42,0,1.09,0,2,0a7.08,7.08,0,0,0,6.28-3.81,48.75,48.75,0,0,1,81.8-7.41,7.1,7.1,0,0,0,6.5,2.67,85,85,0,0,1,10.83-.68,88.06,88.06,0,1,1-80.12,124.61Z"/><g class="cls-18"><rect class="cls-19" x="284.96" y="125.49" width="122.08" height="248.8" rx="16.7" ry="16.7" transform="translate(-2.2 3.08) rotate(-0.51)"/><rect class="cls-7" x="287.67" y="128.8" width="116.65" height="242.18" rx="14.15" ry="14.15" transform="translate(-2.2 3.08) rotate(-0.51)"/><path class="cls-20" d="M398.75,142.15l1.91,214.52a9.76,9.76,0,0,1-9.68,9.85l-87.89.78a9.76,9.76,0,0,1-9.85-9.67l-1.9-214.53a9.76,9.76,0,0,1,9.67-9.85l11.52-.1a2.32,2.32,0,0,1,1.44.58,2.14,2.14,0,0,1,.52.78v1.65a5.74,5.74,0,0,0,5.79,5.68l48.49-.43a5.73,5.73,0,0,0,5.68-5.79v-1.79a1.45,1.45,0,0,1,.21-.51,1.94,1.94,0,0,1,1.55-.74l12.69-.11A9.75,9.75,0,0,1,398.75,142.15Z"/><path class="cls-1" d="M312.53,133.15h-.24A1.85,1.85,0,0,1,312.53,133.15Z"/><rect class="cls-21" x="336.89" y="134.76" width="14.79" height="2.31" rx="1.15" ry="1.15" transform="translate(-1.19 3.06) rotate(-0.51)"/><circle class="cls-21" cx="357.71" cy="135.79" r="2.06"/><path class="cls-19" d="M406.09,182.49h0a1.94,1.94,0,0,1,1.94,1.94v24.91a1.94,1.94,0,0,1-1.94,1.94h0a0,0,0,0,1,0,0V182.49A0,0,0,0,1,406.09,182.49Z" transform="translate(-1.73 3.62) rotate(-0.51)"/><path class="cls-19" d="M283.1,200.26h0A1.94,1.94,0,0,1,285,202.2v14.58a1.94,1.94,0,0,1-1.94,1.94h0a0,0,0,0,1,0,0V200.26a0,0,0,0,1,0,0Z" transform="translate(570 416.46) rotate(179.49)"/><path class="cls-19" d="M282.9,177.21h0a1.94,1.94,0,0,1,1.94,1.94v14.58a1.94,1.94,0,0,1-1.94,1.94h0a0,0,0,0,1,0,0V177.21a0,0,0,0,1,0,0Z" transform="translate(569.38 370.34) rotate(179.49)"/><path class="cls-19" d="M282.7,159.33h0a1.94,1.94,0,0,1,1.94,1.94v6.21a1.94,1.94,0,0,1-1.94,1.94h0a0,0,0,0,1,0,0v-10.1A0,0,0,0,1,282.7,159.33Z" transform="translate(568.79 326.23) rotate(179.49)"/><rect class="cls-9" x="299.49" y="153.37" width="19.24" height="19.24" rx="5.02" ry="5.02" transform="translate(-1.43 2.75) rotate(-0.51)"/><rect class="cls-22" x="323.47" y="153.16" width="19.24" height="19.24" rx="5.02" ry="5.02" transform="translate(-1.43 2.96) rotate(-0.51)"/><rect class="cls-11" x="347.57" y="152.95" width="19.24" height="19.24" rx="5.02" ry="5.02" transform="translate(-1.43 3.18) rotate(-0.51)"/><rect class="cls-23" x="347.84" y="184.1" width="19.24" height="19.24" rx="5.02" ry="5.02" transform="translate(-1.71 3.18) rotate(-0.51)"/><rect class="cls-10" x="299.45" y="184.53" width="19.24" height="19.24" rx="5.02" ry="5.02" transform="translate(-1.71 2.75) rotate(-0.51)"/><rect class="cls-24" x="323.74" y="184.19" width="19.24" height="19.24" rx="5.02" ry="5.02" transform="translate(-1.71 2.97) rotate(-0.51)"/><rect class="cls-24" x="371.54" y="152.73" width="19.24" height="19.24" rx="5.02" ry="5.02" transform="translate(-1.43 3.39) rotate(-0.51)"/></g></g></g></svg>