<svg xmlns="http://www.w3.org/2000/svg" xmlns:xlink="http://www.w3.org/1999/xlink" viewBox="0 0 748.85 662.2"><defs><style>.cls-1,.cls-5{fill:#36beb9;}.cls-1{opacity:0.1;}.cls-2{fill:url(#linear-gradient);}.cls-3{fill:#4b5765;}.cls-4,.cls-9{fill:#ec695c;}.cls-4{opacity:0.4;}.cls-6{fill:none;stroke:#ec695c;stroke-linecap:round;stroke-miterlimit:10;stroke-width:6.6px;}.cls-7{opacity:0.8;fill:url(#linear-gradient-2);}.cls-8{opacity:0.25;fill:url(#linear-gradient-3);}.cls-10{fill:#f69799;}.cls-11{fill:#fac9cd;}.cls-12{fill:#fff;}</style><linearGradient id="linear-gradient" x1="376.76" y1="140.48" x2="376.76" y2="661.08" gradientUnits="userSpaceOnUse"><stop offset="0" stop-color="#fff" stop-opacity="0"/><stop offset="0.27" stop-color="#79ccc9" stop-opacity="0.09"/><stop offset="0.64" stop-color="#36beb9" stop-opacity="0.1"/><stop offset="0.99" stop-color="#36beb9" stop-opacity="0.4"/></linearGradient><linearGradient id="linear-gradient-2" x1="173.68" y1="426.7" x2="281.45" y2="426.7" gradientUnits="userSpaceOnUse"><stop offset="0.1" stop-color="#fff" stop-opacity="0"/><stop offset="0.38" stop-color="#79ccc9" stop-opacity="0.09"/><stop offset="0.64" stop-color="#36beb9" stop-opacity="0.1"/><stop offset="0.99" stop-color="#36beb9" stop-opacity="0.4"/></linearGradient><linearGradient id="linear-gradient-3" x1="487.78" y1="344.14" x2="487.78" y2="662.2" gradientUnits="userSpaceOnUse"><stop offset="0.2" stop-color="#fff" stop-opacity="0"/><stop offset="0.99" stop-color="#fff"/></linearGradient></defs><title>nucleus-accumbens_2</title><g id="Layer_2" data-name="Layer 2"><g id="Layer_1-2" data-name="Layer 1"><path class="cls-1" d="M748.85,266.82V661H3.1c-1-.84-2.07-1.69-3.1-2.54v-633c130.48-58,303.28-10.37,376.1,76.66,16.55,19.79,25.13,33.19,29.32,40.66a59.08,59.08,0,0,1,3.56,7.15c3,4.68,5.83,9.07,8.42,13.18,11.48,18.23,19,31.27,26.57,42.25a146.91,146.91,0,0,0,24.26,27.76c10.52,9.43,22.41,20.08,39.9,26.75,22.87,8.72,42.63,5.79,62.9.45,13.69-3.61,27.62-8.32,42.88-11.3C658.85,240.26,707.25,248.18,748.85,266.82Z"/><path class="cls-2" d="M579.84,140.48q-5.55,39.65-11,79.35-4.39,31.63-8.78,63.25-26.24,189-52.51,378h-280l-53.82-520.6a657.4,657.4,0,0,0,207,32.27q11.76,0,23.11-.55c6.88-.28,13.66-.68,20.32-1.16A657.41,657.41,0,0,0,579.84,140.48Z"/><path class="cls-3" d="M248.15,114.11q1.95,5.37,3.89,10.73a1.74,1.74,0,0,0,1,1l11.49,4.46a1.73,1.73,0,0,1,0,3.24l-11.66,4.34a1.73,1.73,0,0,0-1,1.06q-1.81,5.29-3.64,10.58a1.73,1.73,0,0,1-3.27,0l-3.74-10.41a1.72,1.72,0,0,0-1-1l-11.71-4.55a1.74,1.74,0,0,1,0-3.23l11.31-4.49a1.69,1.69,0,0,0,1-1q2.08-5.4,4.16-10.8A1.73,1.73,0,0,1,248.15,114.11Z"/><circle class="cls-4" cx="307.58" cy="352.55" r="5.3"/><path class="cls-3" d="M449.86,296.28c.88,2.45,1.77,4.91,2.66,7.36a1.19,1.19,0,0,0,.69.7l7.88,3.06a1.19,1.19,0,0,1,0,2.22l-8,3a1.22,1.22,0,0,0-.71.73c-.83,2.42-1.66,4.83-2.5,7.25a1.19,1.19,0,0,1-2.24,0c-.85-2.38-1.7-4.75-2.56-7.13a1.21,1.21,0,0,0-.69-.71l-8-3.12a1.19,1.19,0,0,1,0-2.21l7.75-3.07a1.23,1.23,0,0,0,.68-.68l2.85-7.4A1.19,1.19,0,0,1,449.86,296.28Z"/><circle class="cls-5" cx="489.39" cy="236.54" r="5.3"/><path class="cls-5" d="M451.57,119.69l2.67,7.36a1.17,1.17,0,0,0,.68.7l7.88,3.06a1.19,1.19,0,0,1,0,2.22l-8,3a1.18,1.18,0,0,0-.7.73q-1.26,3.61-2.5,7.25a1.19,1.19,0,0,1-2.24,0q-1.29-3.57-2.56-7.13a1.21,1.21,0,0,0-.69-.71l-8-3.12a1.19,1.19,0,0,1,0-2.21l7.75-3.07a1.21,1.21,0,0,0,.67-.68l2.85-7.4A1.19,1.19,0,0,1,451.57,119.69Z"/><circle class="cls-5" cx="227.36" cy="315.98" r="5.3"/><line class="cls-6" x1="364.83" y1="175.72" x2="364.83" y2="160.6"/><circle class="cls-4" cx="358.7" cy="85.29" r="5.3"/><polygon class="cls-7" points="227.36 662.2 173.68 191.19 200.52 191.19 281.45 662.2 227.36 662.2"/><polygon class="cls-8" points="489.39 662.2 530.48 344.14 509.94 344.14 445.08 662.15 489.39 662.2"/><path class="cls-9" d="M442.52,592.58c1.4-.27,6.09-1.19,7.81-4.78.39-.81.81-2.13,0-7a66.69,66.69,0,0,0-2.3-9.5,34.66,34.66,0,0,1-.87-14c2.7-.59,19.07-4.42,28.61-20.6,10.13-17.18,4.41-34.46,3.56-36.89.85-1,15.21-18.82,8-40-5.31-15.57-18.64-22.27-21.33-23.56-1.11-6.11-4.56-20.13-16.63-31.4-15.5-14.47-39-18.57-61.15-11.26A47.57,47.57,0,0,0,354.93,383c-19.36,1.48-30.53,14.58-32.44,16.89a39,39,0,0,0-39.11,25.33c-4.1,1.5-17.74,7-26.22,21.78-11.72,20.38-3.75,41.28-2.66,44-.46,1.55-7.65,27.8,9.77,47.11,14.49,16.06,39.67,20.3,60.89,9.33a60.17,60.17,0,0,0,56,8.45,235,235,0,0,0,18.07,15.8c13.34,10.53,20.67,16.21,31.57,19.13C432.83,591.35,437.23,593.62,442.52,592.58Z"/><path class="cls-10" d="M433.85,579.82a4,4,0,0,0,5.61-4.65A71.25,71.25,0,0,1,437,547.24c1.3-.09,20.28-1.67,29.62-18.64,8.27-15,2.23-29.91,1.45-31.74,9.55-9.52,13.11-23.26,9.09-35.42-4.66-14.11-17.43-19.72-19.47-20.57-1.08-5.45-4.36-17.77-15.17-27.43-14.27-12.75-35.86-15.68-55.79-8-1.29-1.36-12.83-13.09-30.45-11.18s-26.52,16.06-27.47,17.63c-.67-.29-12.46-5.25-23.24,2.17-10.93,7.53-10.34,20.57-10.3,21.23-1.39,0-18.67.38-28.24,14.87-7.4,11.22-7.13,26.26.76,37.92-5.81,14.56-3.71,30.8,5.73,41.67,12.56,14.46,36.4,17.44,54.94,4.89a41.28,41.28,0,0,0,53.14,6.58,191.3,191.3,0,0,0,18.6,17A196.86,196.86,0,0,0,433.85,579.82Z"/><path class="cls-11" d="M333.71,429.29c-.91-.29-11.95-3.56-21,3.75a22.76,22.76,0,0,0-8,13.83,2.33,2.33,0,0,1-2.09,2c-3.62.35-11.28,1.86-16.47,8.43-5,6.39-6.05,15.43-2.82,23.63a2.44,2.44,0,0,0,4.58-.12c1.76-5.11,5.5-12.18,13.24-15.72a23.35,23.35,0,0,1,9.76-2.08,2.4,2.4,0,0,0,2.44-2.42,32.73,32.73,0,0,1,20.39-31.26Z"/><path class="cls-9" d="M465.77,445.35A52,52,0,0,0,450,455.22a54.85,54.85,0,0,0-13,18.33,56.5,56.5,0,0,0-3.51,10.94,1.05,1.05,0,0,1-2,.14A28.36,28.36,0,0,1,435.84,458a1.86,1.86,0,0,0-1.47-3,51.74,51.74,0,0,1-7.72-.57,50.37,50.37,0,0,1-11.09-3,1.05,1.05,0,0,1,.47-2c7.81.75,32.66-1.6,38.06-10.79,1.35-2.3,1.89-6.58-3.28-15.26Z"/><path class="cls-9" d="M308.76,543a36.51,36.51,0,0,0,10.48-3.45c3.71-1.89,5.57-2.84,6.4-4.24,4.42-7.45-.47-22.74-7.5-30.67a1.18,1.18,0,0,1,1.53-1.77c15.58,11.13,23,24.41,19.95,33.65-.76,2.3-2.74,6.12-9,9.6Z"/><path class="cls-11" d="M314.88,514.05a1.18,1.18,0,0,1,2.23-.28,15.91,15.91,0,0,1-.6,14.57c-3.57,5.88-11.48,8.72-19,6.49a1.17,1.17,0,0,1,.06-2.24,23,23,0,0,0,17.31-18.54Z"/><path class="cls-9" d="M412.55,401.32c-2.53.15-14.22,1.15-22.55,10.78-7.1,8.22-9.3,19.87-6.11,30.86a1.67,1.67,0,0,1-2.58,1.85,21.47,21.47,0,0,1-3.86-3.88c-4.72-6.18-4.71-13.21-4.37-16.64a.93.93,0,0,0-1.36-.93,20.86,20.86,0,0,1-5.05,1.68,21.2,21.2,0,0,1-4.68.39,1.68,1.68,0,0,1-.65-3.2,59.37,59.37,0,0,0,27.29-24.64Z"/><path class="cls-11" d="M438.75,421.5a.79.79,0,0,1,1.15-1,21.66,21.66,0,0,1,2.76,2.31c1.25,1.25,7.37,7.63,5.81,12.48-1.16,3.66-6.68,6.44-13.79,6a.79.79,0,0,1-.22-1.54,17.39,17.39,0,0,0,5.47-3.07c1.44-1.22,2.82-2.42,3.18-4.33.27-1.42-.14-2.6-2.26-6.78C440.26,424.38,439.56,423,438.75,421.5Z"/><path class="cls-9" d="M392.88,552.66c.44-9.16,2.6-21.41,11.55-28.51,12-9.52,29.62-4.59,29.77-6.28s-17.32-9.48-32.92-2.25c-14.55,6.76-18.93,22.62-19.7,25.62a30.47,30.47,0,0,0,5.3,6.89A30.85,30.85,0,0,0,392.88,552.66Z"/><path class="cls-11" d="M390.89,501.86c14.35-8.17,30-2.67,30.18-3.93.18-1.52-22.09-12.38-37.82-1.53-14,9.69-14.16,30.66-12.29,31.36S375.69,510.52,390.89,501.86Z"/><path class="cls-12" d="M345.11,289.26v-.52a6.3,6.3,0,0,0-2.83-5.22c-21.39-14.34-29.44-40.82-20.4-61.42,7.17-16.32,24.31-27.23,43.71-28.17a48.18,48.18,0,0,1,23.66,89.9,6.32,6.32,0,0,0-3.18,5.43h-41Z"/><path class="cls-9" d="M365.77,227.22c-7.25-14.17-26.67-8.81-26.67,5.58,0,16.74,19.64,31.47,26.67,31.47s26.67-14.73,26.67-31.47C392.44,218.41,373,213.05,365.77,227.22Z"/><path class="cls-5" d="M345.11,289.26h41v13.37a8.93,8.93,0,0,1-8.93,8.93H354a8.93,8.93,0,0,1-8.93-8.93Z"/><path class="cls-5" d="M354,315.34a11.7,11.7,0,0,0,23.1,0Z"/><line class="cls-6" x1="302.28" y1="231.24" x2="287.16" y2="231.24"/><line class="cls-6" x1="442.84" y1="231.24" x2="427.71" y2="231.24"/><line class="cls-6" x1="323.57" y1="193.93" x2="312.88" y2="183.24"/><line class="cls-6" x1="411.93" y1="194.56" x2="422.62" y2="183.87"/></g></g></svg>