<?xml version="1.0" encoding="utf-8"?>
<!-- Generator: Adobe Illustrator 22.1.0, SVG Export Plug-In . SVG Version: 6.00 Build 0)  -->
<svg version="1.1" id="Layer_1" xmlns="http://www.w3.org/2000/svg" xmlns:xlink="http://www.w3.org/1999/xlink" x="0px" y="0px"
	 viewBox="0 0 98.9 75.9" style="enable-background:new 0 0 98.9 75.9;" xml:space="preserve">
<style type="text/css">
	.st0{fill:#35BEB9;}
	.st1{fill:none;stroke:#FFFFFF;stroke-width:5.53;stroke-linecap:round;stroke-miterlimit:10;}
</style>
<title>prev_1</title>
<g id="Layer_2_1_">
	<g id="Layer_1-2">
		<path class="st0" d="M95.4,46.6c-1.5,5.3-6,18.9-15.8,24.2c-2.6,1.4-5.5,2.3-8.5,2.7c-4,0.5-6.4-0.3-9.8-0.9
			c-2.5-0.4-5-0.7-7.5-0.6c-2,0-4,0.1-5.9,0.4c-0.8,0.1-1.5,0.3-2.3,0.6c-3,0.9-6,1.7-9,2.6c-5.3,1.6-15.1-3-21.5-8
			c-2.9-2.2-11.7-9.4-14.4-22.2c-1.1-5.7-0.9-11.6,0.6-17.2C2.1,24.9,5,14.7,14.6,7.6c8.9-6.6,23.5-10.4,33.3-5
			c4.1,2.3,8.7,6.9,13.4,5.7c0.9-0.2,3.4-1,7.3-1.8c1.1-0.2,2.1-0.4,3.2-0.5c4.6-0.4,12.7-1.2,19.4,5.2c3,2.9,5.2,6.5,6.4,10.4
			C101.3,33.5,96.1,45.1,95.4,46.6z"/>
		<path class="st1" d="M56.8,26.6L41,36.5c-0.8,0.4-1.1,1.3-0.8,2.1c0.2,0.3,0.4,0.6,0.8,0.8l15.8,9.9"/>
	</g>
</g>
</svg>
