<?xml version="1.0" encoding="utf-8"?>
<!-- Generator: Adobe Illustrator 22.1.0, SVG Export Plug-In . SVG Version: 6.00 Build 0)  -->
<svg version="1.1" id="Layer_1" xmlns="http://www.w3.org/2000/svg" xmlns:xlink="http://www.w3.org/1999/xlink" x="0px" y="0px"
	 viewBox="0 0 1169.7 1205" style="enable-background:new 0 0 1169.7 1205;" xml:space="preserve">
<style type="text/css">
	.st0{opacity:0.15;fill:#36BEB9;enable-background:new    ;}
	.st1{opacity:0.1;fill:#4B5765;enable-background:new    ;}
	.st2{opacity:7.000000e-02;fill:#35BEB9;enable-background:new    ;}
	.st3{fill:url(#SVGID_1_);}
	.st4{opacity:0.1;fill:#36BEB9;enable-background:new    ;}
	.st5{fill:#FFFFFF;}
	.st6{fill:#EC695C;}
	.st7{opacity:0.5;fill:#F15F72;enable-background:new    ;}
	.st8{fill:#81D2EA;}
	.st9{opacity:0.5;}
	.st10{fill:#80AFDE;}
	.st11{fill:url(#SVGID_2_);}
	.st12{fill:#46505B;}
	.st13{fill:#FBC2AC;}
	.st14{fill:#FFD469;}
	.st15{fill:none;stroke:#171717;stroke-width:2.03;stroke-linecap:round;stroke-miterlimit:10;}
	.st16{fill:#171717;}
	.st17{fill:#F15F72;}
	.st18{fill:#4B5765;}
	.st19{opacity:0.5;fill:#F79877;enable-background:new    ;}
	.st20{fill:#FBC2AC;stroke:#F79977;stroke-width:1.95;stroke-linecap:round;stroke-miterlimit:10;}
	.st21{fill:#45C0B8;}
	.st22{fill:#9AAFC8;}
	.st23{fill:#EFF1F4;}
</style>
<title>Asset 2</title>
<g>
	<g id="Layer_2_1_">
		<g id="Layer_1-2">
			<path class="st0" d="M1169.7,744.5v161.3H390.4V762c0-9.7,8.5-17.6,19-17.6L1169.7,744.5z"/>
			<rect x="349.5" y="905.8" class="st1" width="820.2" height="29.7"/>
			<path class="st2" d="M1169,0v744.5H497.3c11.2-102.1,14.7-201.4-50.6-288.8c-74.4-99.8-147.4-62.5-288.6-212.6
				C73.7,153.3,26.5,62.1,0,0H1169z"/>
			<path class="st2" d="M1169,935.5V1205H650c-22.5-12.8-61.9-37.8-97.1-78.2c-52.9-60.7-69.3-125.5-70.9-191.4L1169,935.5
				L1169,935.5z"/>
			
				<linearGradient id="SVGID_1_" gradientUnits="userSpaceOnUse" x1="10.8" y1="1139.2001" x2="1169" y2="1139.2001" gradientTransform="matrix(1 0 0 1 0 6)">
				<stop  offset="6.000000e-02" style="stop-color:#F0F1F4;stop-opacity:0"/>
				<stop  offset="0.69" style="stop-color:#F0F1F4"/>
			</linearGradient>
			<rect x="10.8" y="1085.3" class="st3" width="1158.2" height="119.8"/>
			<path class="st4" d="M719.1,243l-169,169V291.8c0-27,21.9-48.8,48.9-48.8L719.1,243L719.1,243z"/>
			<polygon class="st4" points="852.5,243 550.1,549.8 550.1,490.9 798.1,243 			"/>
			<path class="st4" d="M1057.4,291.8V584c0,27-21.9,48.8-48.8,48.8l0,0H598.9c-26.3,0-47.9-20.9-48.8-47.2L887.8,243h120.8
				C1035.6,243,1057.4,264.8,1057.4,291.8z"/>
			<path class="st5" d="M493.4,606.8L493.4,606.8V605C493.4,605.7,493.4,606.2,493.4,606.8z"/>
			<circle class="st6" cx="799.1" cy="205.7" r="24.4"/>
			<path class="st7" d="M798.7,200.5c-3.9-7.6-14.2-4.7-14.2,3c0,8.9,10.5,16.8,14.2,16.8s14.3-7.9,14.3-16.8
				C812.9,195.8,802.6,192.9,798.7,200.5z"/>
			<path class="st5" d="M799.4,198.9c-3.5-6.8-12.8-4.2-12.8,2.7c0,8.1,9.5,15.1,12.8,15.1s12.8-7.1,12.8-15.1
				C812.3,194.7,802.9,192.1,799.4,198.9z"/>
			<circle class="st8" cx="858.5" cy="285.1" r="27.3"/>
			<g class="st9">
				<path class="st10" d="M845.7,280.1l4.4-0.6c0.7-0.1,1.3,0.4,1.4,1.1l1.8,12.9c0.1,0.7-0.4,1.3-1.1,1.4l-4.4,0.6
					c-0.7,0.1-1.3-0.4-1.4-1.1l-1.8-12.9C844.5,280.9,845,280.2,845.7,280.1z"/>
				<path class="st10" d="M872.1,286.6c-0.2-1.2-1.3-2.1-2.5-1.9l0,0h0.2c1.3-0.1,2.2-1.2,2.1-2.4c-0.1-1.3-1.2-2.2-2.4-2.1
					c-0.1,0-0.2,0-0.3,0l-8.4,1.1c1.3-2,1.9-4.4,1.6-6.9c-0.6-4.2-2.9-4.6-4-4.5c-2.4,0.3-0.8,2.6-1.2,4.6c-0.2,1-1.5,2.6-3.4,5.5
					c-1.3,2.1-1.9,3.8-1.7,5.4l1.7,12.2c0,0.6,0.6,1.1,1.2,1h0.1l8-1.1l7.2-1c0.9-0.1,1.6-1,1.4-1.9l0,0l0,0c-0.1-0.9-1-1.6-1.9-1.5
					l0,0l0.6-0.1c1.1-0.2,1.9-1.2,1.8-2.3s-1.2-1.9-2.3-1.8h0.4C871.5,289,872.4,287.8,872.1,286.6L872.1,286.6z"/>
			</g>
			<path class="st5" d="M845.8,283.5l4.4-0.6c0.7-0.1,1.3,0.4,1.4,1.1l1.8,12.9c0.1,0.7-0.4,1.3-1.1,1.4l-4.4,0.6
				c-0.7,0.1-1.3-0.4-1.4-1.1l-1.8-12.9C844.6,284.2,845.1,283.6,845.8,283.5z"/>
			<path class="st5" d="M872.9,285.6c-0.2-1.2-1.3-2.1-2.5-1.9h0.2c1.2-0.2,2.1-1.3,2-2.6c-0.2-1.2-1.3-2.1-2.6-2l0,0l-8.4,1.1
				c1.3-2,1.9-4.4,1.6-6.9c-0.6-4.2-2.9-4.6-4-4.5c-2.4,0.3-0.8,2.7-1.2,4.6c-0.2,1-1.5,2.7-3.4,5.5c-1.3,2.1-1.9,3.8-1.7,5.4
				l1.7,12.3c0.1,0.6,0.6,1.1,1.2,1l0,0l8-1.1l7.2-1c0.9-0.1,1.6-1,1.5-1.9l0,0l0,0c-0.1-0.9-1-1.6-1.9-1.5l0,0l0.6-0.1
				c1.1-0.2,1.9-1.2,1.8-2.3s-1.2-1.9-2.3-1.8h0.4C872.3,288,873.1,286.9,872.9,285.6C872.9,285.7,872.9,285.6,872.9,285.6z"/>
			<rect x="946.5" y="744.5" class="st1" width="20.2" height="161.3"/>
			<rect x="621.3" y="744.5" class="st1" width="20.2" height="161.3"/>
			
				<linearGradient id="SVGID_2_" gradientUnits="userSpaceOnUse" x1="0" y1="83.75" x2="1168.9" y2="83.75" gradientTransform="matrix(1 0 0 1 0 6)">
				<stop  offset="3.000000e-02" style="stop-color:#F0F1F4;stop-opacity:0"/>
				<stop  offset="0.31" style="stop-color:#36BEB9;stop-opacity:0.1"/>
				<stop  offset="0.58" style="stop-color:#36BEB9;stop-opacity:0.2"/>
				<stop  offset="1" style="stop-color:#36BEB9;stop-opacity:0.2"/>
			</linearGradient>
			<rect y="72.6" class="st11" width="1168.9" height="34.3"/>
			<path class="st12" d="M724.2,844.1h126.2c7.7,11.2,13.1,23.9,15.7,37.2c3.4,18,1.7,36.7-4.9,53.8l-148,0.3
				c-4.8-15.7-6.2-32.2-4-48.5C711.3,871.8,716.4,857.3,724.2,844.1z"/>
			<polygon class="st13" points="734.4,1073.9 740.2,1127.6 764.4,1127.6 769.2,1073.9 			"/>
			<polygon class="st13" points="809.4,1072.5 815.3,1126.3 839.5,1126.3 844.3,1072.5 			"/>
			<circle class="st14" cx="881.8" cy="171.5" r="23"/>
			<path class="st15" d="M870.2,162.6l6.7,2.7c0.2,0.1,0.3,0.3,0.2,0.6c0,0.1-0.1,0.2-0.2,0.2l-6.7,3.1"/>
			<path class="st15" d="M893.4,162.6l-6.7,2.7c-0.2,0.1-0.3,0.3-0.2,0.5c0,0.1,0.1,0.2,0.2,0.2l6.7,3.1"/>
			<path class="st16" d="M868.4,177c3,7.4,11.5,10.9,18.8,7.9c3.6-1.5,6.5-4.3,7.9-7.9C886.3,175.6,877.3,175.6,868.4,177z"/>
			<path class="st17" d="M875,184.2c4.3,2.3,9.5,2.3,13.7,0C884.7,181,879,181,875,184.2z"/>
			<path class="st18" d="M749.7,884.6c-19.2,0.4-35.4,14.1-39.1,32.9l21.5,155.7c0.2,1.7,1.7,3,3.5,3h31.9c1.8,0,3.2-1.3,3.5-3.1
				l18.9-155.6C786,898.4,769.2,884.5,749.7,884.6z"/>
			<path class="st18" d="M824.4,882.3c-19.2,0.4-35.4,14.1-39.1,32.9l21.5,155.7c0.2,1.7,1.7,3,3.5,3h31.9c1.8,0,3.2-1.3,3.5-3.1
				l18.9-155.6C860.8,896,843.9,882.2,824.4,882.3z"/>
			<path class="st18" d="M738.5,1112c0.6,7.5,7.1,13.2,14.7,12.7c7-0.5,12.5-6.3,12.7-13.4c2.3,7,2.6,14.4,1,21.5
				c-0.4,1.6-1.2,3.1-2.2,4.4c-0.8,1.2-1.6,2.2-2.5,3.2c-0.8,0.8-4.9,5-10.9,4.9c-5.1-0.1-8.5-3.3-9.8-4.6c-2.2-2.1-3.9-4.8-4.8-7.8
				C735,1125.9,735.7,1118.6,738.5,1112L738.5,1112z"/>
			<path class="st18" d="M813.6,1109.4c0.6,7.5,7.1,13.2,14.7,12.7c7-0.5,12.5-6.3,12.7-13.4c2.3,7,2.6,14.4,1,21.5
				c-0.4,1.6-1.2,3.1-2.2,4.4c-0.8,1.2-1.6,2.2-2.5,3.2c-0.8,0.8-4.9,5-10.9,4.9c-5.1-0.1-8.5-3.3-9.8-4.6c-2.2-2.1-3.9-4.8-4.8-7.7
				C810,1123.4,810.7,1116,813.6,1109.4L813.6,1109.4z"/>
			<path class="st6" d="M845.5,352H731c-8.7,0-15.7,7-15.7,15.7v43c0,8.7,7,15.7,15.7,15.7l0,0h34.8l19,20.6c1.7,1.8,4.5,2,6.4,0.3
				c0.1-0.1,0.3-0.2,0.4-0.4l17.7-20.5h36.2c8.7,0,15.7-7,15.7-15.7l0,0v-43C861.2,359,854.1,352,845.5,352L845.5,352z"/>
			<path class="st5" d="M747.6,380.1c-4.3-8.5-16-5.3-16,3.3c0,10,11.8,18.8,16,18.8s16-8.8,16-18.8
				C763.5,374.9,751.9,371.7,747.6,380.1z"/>
			<path class="st5" d="M785.8,380.1v18h-4.2v-14.7H778v-3.3H785.8z"/>
			<path class="st5" d="M793.8,395.7c0,0.9-0.3,1.8-0.7,2.6l-1.5,3.7h-2.5l1.1-4.1c-0.9-0.4-1.4-1.2-1.4-2.2c0-1.3,1-2.4,2.3-2.5
				c0.1,0,0.1,0,0.2,0c1.3-0.1,2.4,0.9,2.5,2.2C793.8,395.6,793.8,395.7,793.8,395.7z"/>
			<path class="st5" d="M795.3,389.1c0-5.9,3.3-9.3,7.7-9.3s7.7,3.4,7.7,9.3s-3.3,9.3-7.7,9.3S795.3,395,795.3,389.1z M806.5,389.1
				c0-4.1-1.4-5.8-3.5-5.8s-3.5,1.7-3.5,5.8s1.4,5.8,3.5,5.8S806.5,393.1,806.5,389.1L806.5,389.1z"/>
			<path class="st5" d="M812.7,389.1c0-5.9,3.3-9.3,7.7-9.3s7.7,3.4,7.7,9.3s-3.3,9.3-7.7,9.3S812.7,395,812.7,389.1z M824,389.1
				c0-4.1-1.4-5.8-3.5-5.8s-3.4,1.7-3.4,5.8s1.4,5.8,3.5,5.8S824,393.1,824,389.1L824,389.1z"/>
			<path class="st5" d="M830.2,389.1c0-5.9,3.3-9.3,7.7-9.3s7.7,3.4,7.7,9.3s-3.3,9.3-7.7,9.3S830.2,395,830.2,389.1z M841.4,389.1
				c0-4.1-1.4-5.8-3.5-5.8s-3.5,1.7-3.5,5.8s1.4,5.8,3.5,5.8S841.4,393.1,841.4,389.1L841.4,389.1z"/>
			<path class="st18" d="M806.1,503.3c-3.5,8.4-11.3,23.9-27.8,35.5c-4,2.8-8.3,5.3-12.8,7.3c-0.6,0.3-1.3,0-1.5-0.6
				c-0.2-0.4-0.1-0.8,0.1-1.1l4.4-6.8c-11.7,7.6-24.3,13.5-37.5,17.7l40.2,69.9c13.4,15.8,12,38.7-1.6,51.5
				c-11.5,10.8-29.9,12.6-44.6,3.7c-9.6,1.8-19.3-0.2-23.8-6.1c-4.8-6.3-4.8-18.3-4.8-20.2l0,0c2.2-14.7,16.2-22,18-22.9v-95.1
				c0-28.3,16.2-54.4,42-66c15.3-6.9,32.5-8.3,48.7-3.9c31.3,8.5,52.7,37.6,52.7,70.1V635c16.7,11.2,21,29.7,14.3,39.7
				c-5.5,8.3-17.3,9-19.5,9.1L800.7,635l-0.6-8l41.2-71.7C826.8,539.9,815,522.4,806.1,503.3L806.1,503.3z"/>
			<path class="st13" d="M759.9,618.5l51.4,2c0.5,14,3.2,27.8,8,40.9h-63.7C759.7,647.5,761.2,632.9,759.9,618.5L759.9,618.5z"/>
			<path class="st19" d="M760.1,620.5c0-0.5-0.1-1.2-0.2-2.1c-0.1-1.3-0.1-2.2-0.1-2.4c0.2-1.2,12.3-0.6,51.5,4.3
				c-3.2,3.8-6.7,7.3-10.4,10.6c-1.8,1.5-3.7,2.9-5.4,4.1c-4.8,3.3-11.1,3.4-15.9,0.2c-2.4-1.4-4.7-3-6.8-4.8
				C770,628.3,765.6,624.8,760.1,620.5z"/>
			<path class="st13" d="M730.9,555.3c29.7-9.5,55.9-27.6,75.2-52c8.7,19.4,20.9,37.1,36,52c1,7.9,2.3,29.2-10.4,46.6
				c-6.6,9-15.3,15-20.4,18.5c-5.4,3.7-11.2,6.8-17.3,9.4c-4.7,2-10.1,1.9-14.7-0.3c-5.5-2.6-10.9-5.6-16-8.9
				c-7.4-4.6-15.9-10.1-21.8-17.1C728.2,587.6,729.6,565.4,730.9,555.3z"/>
			<path class="st13" d="M730.9,555.3c-5.8,1.9-10,6.6-11,12.1c-1.2,7.4,3.9,15.4,12.4,17.9L730.9,555.3z"/>
			<path class="st20" d="M727.7,564.3c-3.2,2.6-3.7,7.3-1.1,10.5c0.2,0.3,0.5,0.6,0.8,0.8"/>
			<path class="st13" d="M841.3,555.3c5.8,1.9,10,6.6,11,12.1c1.2,7.4-3.9,15.4-12.4,17.9L841.3,555.3z"/>
			<path class="st20" d="M844.5,564.3c3.2,2.6,3.7,7.3,1.1,10.5c-0.2,0.3-0.5,0.6-0.8,0.8"/>
			<path class="st18" d="M806.1,503.3c-7,19.6-22,35.2-41.4,42.9c-0.5,0.2-1-0.1-1.2-0.5c-0.1-0.3-0.1-0.6,0.1-0.9l4.7-7
				c0-0.1,0.1-0.1,0.2-0.2L806.1,503.3z"/>
			<path class="st21" d="M842.8,728.1l40.6,55l38.5-5.2l-66.8-115.5c-3.1-5.4-8.5-9-14.6-10l-26.2-4.1c-8.1,6.2-17.6,10.3-27.7,11.7
				c-10.1-1.5-19.6-5.5-27.7-11.7l-26.2,4.1c-6.1,1-11.5,4.6-14.6,10l-66.8,115.4l56.3-23.5l22.9-26.3c-1.8,4.9-2.5,10.1-2.2,15.3
				c0.4,7.4,2.9,11.1,4.8,18.8c1.7,6.9,2.2,14.1,1.6,21.2c0.3,4,0.1,8-0.7,11.9c-4.8,17.4-9.5,34.8-14.3,52.2
				c-0.5,1.9,0.6,3.9,2.5,4.4c0.2,0,0.3,0.1,0.5,0.1c42.4,4.7,85.1,4.3,127.4-1.1c2-0.3,3.4-2.1,3.1-4.1c0-0.2-0.1-0.3-0.1-0.5
				l-14.2-51c-0.8-3.9-1-7.9-0.7-11.9c-0.7-12.3,1.4-21,3.6-26.7c1.4-3.8,3.3-7.5,3.7-13.2C846,738.2,845,732.9,842.8,728.1z"/>
			<path class="st22" d="M807,754h-39.6c-2.1-0.1-3.7-1.8-3.7-3.8l-3-60.3c-0.1-2.6,1.5-4.8,3.7-4.8h44.2c2.2,0,3.9,2.1,3.8,4.7
				l-1.8,60.3C810.7,752.2,809.1,753.9,807,754z"/>
			<path class="st23" d="M805.3,756.2h-39.7c-2.1-0.1-3.7-1.8-3.7-3.9l-2.8-60.8c-0.1-2.6,1.6-4.8,3.8-4.8h44.4
				c2.2,0,3.9,2.1,3.8,4.8l-2.1,60.8C809,754.4,807.4,756.1,805.3,756.2z"/>
			<path class="st22" d="M788.9,715.9c-0.1,0.3-0.3,0.6-0.5,0.9c-0.2,0.3-0.4,0.6-0.7,0.8c-0.2,0.2-0.5,0.4-0.8,0.4
				s-0.5-0.1-0.8-0.2c-0.5-0.2-1.1-0.2-1.7,0c-0.2,0.1-0.5,0.2-0.7,0.2c-0.3,0-0.6-0.1-0.9-0.4c-0.3-0.2-0.5-0.5-0.7-0.8
				c-0.3-0.4-0.6-0.9-0.7-1.4c-0.2-0.6-0.3-1.1-0.3-1.7c0-0.6,0.1-1.2,0.4-1.7c0.2-0.4,0.5-0.7,0.9-0.9s0.8-0.3,1.2-0.3
				c0.3,0,0.6,0.1,0.9,0.2c0.2,0.1,0.5,0.2,0.7,0.2c0.3-0.1,0.5-0.1,0.8-0.2c0.3-0.1,0.7-0.2,1.1-0.2c0.7,0,1.4,0.4,1.8,1
				c-1,0.6-1.4,1.9-0.8,2.9c0.1,0.2,0.2,0.3,0.4,0.5s0.4,0.3,0.7,0.4C789,715.7,789,715.8,788.9,715.9L788.9,715.9z M787.1,708.6
				c0,0.5-0.2,1-0.5,1.4c-0.3,0.5-0.9,0.8-1.5,0.7c0-0.1,0-0.1,0-0.2c0-0.5,0.2-1,0.5-1.4c0.2-0.2,0.4-0.4,0.7-0.5
				c0.2-0.1,0.5-0.2,0.8-0.2C787.1,708.5,787.1,708.5,787.1,708.6z"/>
			<path class="st13" d="M917,799.3L917,799.3c-1.8,3.3-4,6.9-6.4,10.8c-19.3,31.8-16.9,27.9-27.2,42.3c-9.2,13-18.5,24.7-27.5,35.2
				c-1.7,1.9-4.1,3-6.7,2.9l-25.5-0.8l-4.8,4.5c-2.8,2.6-7.3,2.4-9.9-0.4c-0.1-0.1-0.2-0.3-0.3-0.4l-2.3-2.9c-1.6-2.1-2-4.9-0.8-7.3
				l6.5-13.7c1.6-3.4,5.5-5.2,9.2-4l14.5,4.6c2.4,0.8,5-0.4,6-2.7c5.9-13.3,12.3-27,19.1-41.1c3.8-7.7,7.5-15.1,11.3-22.5l0.6-1.2
				c1.9-3.6,3.8-7.2,5.7-10.8c1.6-3,3.2-6,4.8-8.9c2.2-3.5,5.2-6.3,8.8-8.3c9.8-5.6,20.2-2.4,21-2.1c3.6,1.2,6.9,2.3,8.8,5.2
				C924.9,782.5,922.5,789.2,917,799.3z"/>
			<path class="st13" d="M651.6,777.8l-3.4,5.2c-2.4,3.5-3.5,7.8-3,12.1c0.3,2.2,1,4.3,2.2,6.1c3.6,5.5,10,6.8,14.4,7.7h0.1
				c4.9,1,10,0.4,14.5-1.8c14-6.6,28.9-14.3,44.4-23.6c13.7-8.2,26.1-16.4,37.3-24.5c2.1-1.5,3.4-3.9,3.5-6.4l1.4-25.5l4.8-4.4
				c2.8-2.6,3-7,0.4-9.9c-0.1-0.1-0.2-0.2-0.4-0.4l-2.7-2.5c-1.9-1.8-4.7-2.3-7.2-1.4l-14.2,5.4c-3.5,1.3-5.6,5.1-4.7,8.8l3.4,14.8
				c0.6,2.5-0.8,5-3.2,5.8c-13.8,4.8-28,10-42.6,15.7C680.9,765.2,665.9,771.5,651.6,777.8z"/>
			<path class="st21" d="M648.6,228.1h66.1c3.9,0,7.1,3.2,7.1,7.1v59.7c0,3.9-3.2,7.1-7.1,7.1h-66.1c-3.9,0-7.1-3.2-7.1-7.1v-59.7
				C641.5,231.2,644.7,228.1,648.6,228.1z"/>
			<path class="st21" d="M665.8,301.9l13.3,12.7c1.4,1.4,3.7,1.4,5.1,0l13.4-12.7H665.8z"/>
			<path class="st5" d="M659.8,251.9l20.9,16.5c0.6,0.4,1.3,0.4,1.9,0l20.9-16.5v22.9c0,2.8-2.3,5.1-5.1,5.1l0,0h-33.5
				c-2.8,0-5.1-2.3-5.1-5.1l0,0L659.8,251.9L659.8,251.9z"/>
			<path class="st5" d="M662,250.2h39.1l-18.9,15.3c-0.3,0.2-0.7,0.2-1,0L662,250.2z"/>
			<circle class="st6" cx="650.1" cy="236.5" r="23.7"/>
			<path class="st5" d="M642.2,232H640v-3.6h6.2v16.5h-4V232z"/>
			<path class="st5" d="M654.7,228c3.5,0,5.4,2,5.4,4.5c0.1,1.7-0.9,3.2-2.5,3.7v0.1c1.8,0.5,2.9,2.2,2.8,4c0,2.8-2,4.8-5.5,4.8
				s-5.9-1.6-6-5.4h3.8c-0.1,1.1,0.7,2.1,1.8,2.1c0.1,0,0.2,0,0.3,0c1,0.1,1.8-0.6,1.9-1.6c0-0.1,0-0.2,0-0.3c0-1.5-0.9-2.1-2.9-2.1
				h-0.7v-3.1h0.7c1.3,0,2.6-0.3,2.6-1.8c0.1-0.9-0.5-1.6-1.4-1.7c-0.1,0-0.2,0-0.3,0c-0.9,0-1.7,0.7-1.8,1.7v0.1h-3.8
				C649.1,229.8,651.3,228,654.7,228z"/>
			<path class="st21" d="M917,799.3L917,799.3c-4.8,8-9.5,15.9-14.2,23.8L872.4,804l0.6-1.2c1.9-3.6,3.8-7.2,5.7-10.8
				c1.6-3,3.2-6,4.8-8.9c2.2-3.5,5.2-6.3,8.8-8.3c9.8-5.6,20.2-2.4,21-2.1c3.6,1.2,6.9,2.3,8.8,5.2
				C924.9,782.5,922.5,789.2,917,799.3z"/>
			<path class="st22" d="M766.8,693.3L766.8,693.3c1.2,0,2.1,0.9,2.1,2v3.5c0,1.1-0.9,2-2,2h-0.1c-1.1,0-2-0.9-2-2v-3.5
				C764.7,694.2,765.6,693.3,766.8,693.3z"/>
			<path class="st4" d="M1169,243v106.7l-62.2,62.2V291.8c0-26.9,21.8-48.8,48.8-48.8L1169,243L1169,243z"/>
			<polygon class="st4" points="1168.9,428.8 1168.9,486.6 1106.8,549.8 1106.8,490.9 			"/>
			<path class="st4" d="M1169,522.5v110.3h-13.4c-26.3,0-47.9-20.9-48.8-47.2L1169,522.5z"/>
		</g>
	</g>
</g>
</svg>
