<svg xmlns="http://www.w3.org/2000/svg" viewBox="0 0 98.92 75.86"><defs><style>.cls-1{fill:#36beb9;}.cls-2{font-size:9px;font-family:Poppins-Regular, Poppins;}.cls-2,.cls-3{fill:#fff;}.cls-3{font-size:13px;font-family:Poppins-SemiBold, Poppins;font-weight:700;}</style></defs><title>trigger</title><g id="Layer_2" data-name="Layer 2"><g id="Layer_1-2" data-name="Layer 1"><path class="cls-1" d="M3.56,46.56c1.5,5.32,5.95,18.87,15.75,24.2a25.17,25.17,0,0,0,8.47,2.66c4,.49,6.38-.28,9.8-.89a38.82,38.82,0,0,1,7.51-.62,30,30,0,0,1,5.9.45,17.77,17.77,0,0,1,2.28.6c3,.92,6,1.71,9,2.59,5.33,1.56,15.12-3,21.49-8,2.85-2.23,11.73-9.41,14.44-22.21a38.24,38.24,0,0,0-.56-17.22C96.79,24.88,94,14.72,84.31,7.57,75.44,1,60.81-2.83,51,2.57c-4.11,2.26-8.68,6.86-13.35,5.68-.88-.22-3.4-1-7.27-1.75A28.57,28.57,0,0,0,27.14,6c-4.58-.45-12.7-1.24-19.38,5.17A24.14,24.14,0,0,0,1.33,21.63C-2.41,33.48,2.86,45.08,3.56,46.56Z"/><text class="cls-2" transform="translate(37.51 31.07)">Step 1</text><text class="cls-3" transform="translate(26.63 49.49)">Trigger</text></g></g></svg>